<?xml version="1.0" standalone="no"?>
<!DOCTYPE svg PUBLIC "-//W3C//DTD SVG 1.1//EN" "http://www.w3.org/Graphics/SVG/1.1/DTD/svg11.dtd" >
<svg xmlns="http://www.w3.org/2000/svg">
<metadata>Generated by IcoMoon</metadata>
<defs>
<font id="menu-icon" horiz-adv-x="1024">
<font-face units-per-em="1024" ascent="960" descent="-64" />
<missing-glyph horiz-adv-x="1024" />
<glyph unicode="&#x20;" horiz-adv-x="512" d="" />
<glyph unicode="&#xaa001;" glyph-name="cs-oracle-ebs" d="M731.232 369.904h-438.464c-161.44 0-292.32 130.88-292.32 292.32 0 171.52 139.056 310.576 310.592 310.576h401.936c171.536 0 310.576-139.056 310.576-310.576 0-161.44-130.88-292.32-292.32-292.32zM311.040 826.64c-90.816 0-164.432-73.616-164.432-164.416 0-80.72 65.44-146.16 146.16-146.16h438.464c80.72 0 146.16 65.44 146.16 146.16 0 90.8-73.616 164.416-164.416 164.416h-401.936zM73.536-50.288v328.848h255.776v-73.072h-182.704v-54.816h146.16v-73.072h-146.16v-54.8h182.688v-73.088h-255.76zM631.488 224.848c4.368-10.144 6.544-21.104 6.384-32.144 0.336-15.872-4.688-31.376-14.256-44.032-9.904-12.656-24.304-21.024-40.192-23.392 9.408-1.968 18.496-5.232 27.024-9.68 8.128-4.208 15.472-9.76 21.744-16.432 6.16-6.64 11.008-14.384 14.256-22.832 3.488-9.152 5.216-18.912 5.104-28.688 0.336-20.336-4.576-40.4-14.256-58.288-7.616-11.792-18.352-21.216-31.040-27.216-13.024-6-27.008-9.6-41.296-10.592-14.864-1.216-29.040-1.84-42.576-1.84h-156.56l1.088 328.864h188.928c10.88 0.080 21.68-1.728 31.968-5.296 0-0.016 26.976-8.448 43.68-48.432zM538.96 148.48c9.424-0.912 18.688 2.848 24.848 10.048 5.152 6.832 5.936 11.552 5.744 20.096 0.144 7.92 0.24 10.544-4.4 16.976-5.888 7.12-14.944 10.816-24.112 9.856l-102.112 0.032v-54.816l100.032-2.192zM438.928 95.856v-73.056l91.344-3.296c5.6 0.048 11.168 0.672 16.624 1.824 5.68 1.088 11.136 3.2 16.080 6.224 4.912 2.96 8.992 7.088 11.872 12.048 3.216 6.048 4.688 12.896 4.208 19.728 0.288 6.144-1.392 12.224-4.752 17.344-3.104 4.432-7.168 8.128-11.872 10.784-4.752 2.688-9.952 4.464-15.344 5.312-4.96 0.816-9.952 1.232-14.992 1.28l-93.168 1.808zM874.656 176.448c-0.832 7.296-3.6 14.24-8.048 20.096-4.176 5.2-9.488 9.392-15.536 12.24-6.304 3.008-13.008 5.104-19.92 6.224-6.88 1.168-13.84 1.776-20.816 1.824-4.032 0-9.504 0-16.272 0-6.72-0.608-13.344-2.016-19.728-4.208-6.192-2.032-11.808-5.472-16.432-10.048-4.656-4.912-7.104-11.52-6.752-18.272-0.192-5.088 1.424-10.064 4.56-14.080 3.088-3.792 6.96-6.912 11.312-9.136 4.768-2.4 9.792-4.256 15.008-5.472l14.976-4.944 66.144-11.328c23.824-3.248 46.272-13.040 64.864-28.32 15.504-15.296 23.68-36.528 22.464-58.288 0.56-17.104-3.2-34.080-10.976-49.328-7.024-12.976-17.2-23.968-29.6-31.968-13.072-8.336-27.568-14.224-42.752-17.36-16.56-3.584-33.472-5.36-50.416-5.296-16.512 0.032-32.96 2.064-48.96 6.032-15.952 3.568-31.2 9.728-45.12 18.272-13.888 8.912-25.808 20.528-35.088 34.176-10.128 15.52-16.4 33.248-18.272 51.68h68.336c1.936-8.912 6.16-17.152 12.256-23.92 5.776-6.272 12.72-11.36 20.448-14.992 7.952-3.712 16.352-6.32 25.024-7.664 8.768-1.456 17.616-2.176 26.48-2.208 3.168 0 8.224 0 15.168 0 7.584 1.12 15.008 3.152 22.112 6.032 6.704 2.064 12.928 5.504 18.272 10.064 10.848 10.848 10.848 28.416 0.016 39.264-0.016 0-0.016 0.016-0.016 0.016-6.144 4.064-12.96 7.024-20.112 8.752-10.96 2.208-23.056 4.448-36.336 6.784-13.28 2.32-25.936 4.56-38 6.752-12.368 2.592-24.592 5.936-36.528 10.048-11.28 3.792-21.888 9.328-31.44 16.448-9.12 6.944-16.56 15.872-21.728 26.128-5.76 12.192-8.512 25.6-8.048 39.088-1.44 30.976 13.744 60.336 39.84 77.088 12.464 8.064 26.336 13.76 40.912 16.816 15.376 3.376 31.040 5.088 46.784 5.104 15.84 0 31.648-2.080 46.944-6.208 14.528-3.712 28.32-9.888 40.752-18.288 12-8.336 22.032-19.184 29.408-31.776 7.952-13.952 12.336-29.648 12.8-45.68h-67.952v-0.144z" />
<glyph unicode="&#xaa002;" glyph-name="cs-sample-data-download-" d="M832 562v154.8l-256 256h-576v-960h512c-0.176 0.288-0.352 0.56-0.544 0.832 53.616-40.512 120.176-64.832 192.544-64.832 176.736 0 320 143.264 320 320 0 131.184-79.024 243.792-192 293.2zM128 844.8h448v-128h128v-128c-21.92 0-43.312-2.224-64-6.416v70.416h-448v-448h198.416c4.528-22.288 11.488-43.664 20.384-64h-282.8v704zM384 396.8v64h64v-0.576c-14.672-19.584-27.28-40.736-37.2-63.424h-26.8zM448 524.8h-64v64h64v-64zM512.576 524.8h-0.576v64h64v-26.8c-22.688-9.92-43.84-22.528-63.424-37.2zM256 396.8v64h64v-64h-64zM320 332.8v-64h-64v64h64zM256 524.8v64h64v-64h-64zM704 12.8c-141.376 0-256 114.624-256 256s114.624 256 256 256 256-114.624 256-256-114.624-256-256-256zM768 460.8h-128v-192h-112l176-192 176 192h-112z" />
<glyph unicode="&#xaa003;" glyph-name="cs-sample-data-upload" d="M704 460.8l-176-192h112v-192h128v192h112zM832 562v154.8l-256 256h-576v-960h512c-0.176 0.288-0.352 0.56-0.544 0.832 53.616-40.512 120.176-64.832 192.544-64.832 176.736 0 320 143.264 320 320 0 131.184-79.024 243.792-192 293.2zM128 844.8h448v-128h128v-128c-21.92 0-43.312-2.224-64-6.416v70.416h-448v-448h198.416c4.528-22.288 11.488-43.664 20.384-64h-282.8v704zM384 396.8v64h64v-0.576c-14.672-19.584-27.28-40.736-37.2-63.424h-26.8zM448 524.8h-64v64h64v-64zM512.576 524.8h-0.576v64h64v-26.8c-22.688-9.92-43.84-22.528-63.424-37.2zM256 396.8v64h64v-64h-64zM320 332.8v-64h-64v64h64zM256 524.8v64h64v-64h-64zM704 12.8c-141.376 0-256 114.624-256 256s114.624 256 256 256 256-114.624 256-256-114.624-256-256-256z" />
<glyph unicode="&#xaa004;" glyph-name="cs-success-records" d="M704.016 588.8c-44.064 0-87.664-9.152-128-26.88v410.88h-256.016v-896h128c106.048-141.376 306.64-170.032 448.016-64s170.032 306.624 64 448c-60.432 80.576-155.28 128-256 128zM384 908.8h128v-384c-62.656-46.976-105.92-115.28-121.6-192h-6.4v576zM704.016 12.8c-141.376 0-256.016 114.624-256.016 256s114.64 256 256.016 256 256-114.624 256-256-114.624-256-256-256zM560.016 348.8c-17.68 0-32.016-14.32-32.016-32v-160c0-17.664 14.336-32 32.016-32 17.664 0 32 14.336 32 32v160c0 17.68-14.352 32-32 32zM876.8 364.8h-140.784c23.536 36.656 16 96 16 96 0 17.664-14.336 32-32 32-17.68 0-32-14.336-32-32-8.816-101.904-64-112-64-112v-188.784c0-19.472 15.744-35.216 35.184-35.216v0h128c8.4 0 16.528 3.024 22.88 8.464l89.936 76.976c7.664 6.72 12.032 16.4 12 26.56v92.816c0 19.44-15.744 35.184-35.216 35.184v0zM0 76.8h256v704h-256v-704zM64 716.8h128v-384h-128v384zM128 268.8c35.344 0 64-28.656 64-64s-28.656-64-64-64-64 28.656-64 64 28.656 64 64 64z" />
<glyph unicode="&#xaa005;" glyph-name="cs-success" horiz-adv-x="1022" d="M766.204-48.806l-510.803-2.394 1.596 638.504s167.767 95.776 167.767 228.744c0 0-11.493 156.593 78.376 156.593s78.376-81.569 78.376-156.593-38.789-210.387-38.789-210.387h351.177c70.527 0 127.701-57.174 127.701-127.701v-271.364zM63.85 589.698h63.85c35.264 0 63.85-28.587 63.85-63.85v-510.803c0-35.264-28.587-63.85-63.85-63.85h-63.85c-35.264 0-63.85 28.587-63.85 63.85v510.803c0 35.264 28.587 63.85 63.85 63.85z" />
<glyph unicode="&#xaa006;" glyph-name="cs-authorization" d="M517.6 592.96c47.024 19.84 75.376 96 47.024 123.84l-4.624 3.68c22.256 56.16 48 161.28-64 183.84-27.36 38.4-80 68.16-176 68.48-216.8 0-225.616-190.064-224-242.56-7.92-2.736-15.056-7.344-20.8-13.44-28.64-28.64 0.8-106.080 49.12-124.64 14.496-30.912 34.192-59.12 58.24-83.36 35.632-38.56 84.992-61.552 137.44-64 79.2 0 157.92 65.296 197.6 148.16zM320.96 508.8c-35.744 2.48-69.12 18.848-92.96 45.6-39.6 38.784-63.12 91.040-65.92 146.4 0.032 9.568 0.992 19.104 2.88 28.48 89.744 17.808 176.128 49.616 256 94.24l4.32-3.84c3.328-38.16 22.768-73.072 53.44-96 1.216-7.408 1.856-14.896 1.92-22.4-0.64-91.184-83.856-192.48-159.68-192.48zM288 348.8l-96 80-192-96 98.72-256h157.28l32 192c0 0-71.68 16 0 80zM960 460.8c-60.432 80.576-155.28 128-256 128-126.4-0.144-240.912-74.688-292.16-190.256l-59.84-49.744c71.68-64 0-80 0-80l32-192h64c106.032-141.376 306.64-170.032 448-64s170.032 306.624 64 448zM704 12.8c-141.376 0-256 114.624-256 256s114.64 256 256 256 256-114.64 256-256-114.624-256-256-256zM681.44 316.8h-201.44v-128h128v64h65.12c8.816-70.128 72.848-119.84 143.008-111.008 70.128 8.848 119.808 72.88 110.976 143.008-8.064 64.064-62.56 112.064-127.088 112-52.144-0.032-99.040-31.68-118.576-80zM832 300.8c17.664 0 32-14.32 32-32 0-17.664-14.336-32-32-32-17.68 0-32 14.336-32 32 0 17.68 14.32 32 32 32z" />
<glyph unicode="&#xaa007;" glyph-name="cs-connections" d="M107.664 487.664c-100.416-100.432-68.976-206.56 0-323.936l-107.664-107.088 107.856-107.84 107.856 107.84c116.8-68.976 222.944-100.4 323.92 0l161.776 161.776-431.968 431.024-161.776-161.776zM538.88 272.16l-53.744-53.92-215.696 215.68 53.92 53.936 215.52-215.696zM1024.192 865.712l-108.032 107.088-107.856-107.856c-116.8 68.976-222.944 100.416-323.936 0l-161.008-161.584 431.2-431.2 161.776 161.76c100.4 100.416 68.976 206.56 0 323.936l107.856 107.856zM700.64 433.92l-215.504 215.52 53.744 53.92 215.68-215.696-53.92-53.744z" />
<glyph unicode="&#xaa008;" glyph-name="cs-definition" d="M806.448 571.744c34.896 69.184 8.88 142.032-37.328 220.736l90.56 90.56-90.4 89.76-90.4-90.56c-98.080 57.92-187.2 84.32-272 0l-134.88-135.68 229.808-229.808c-16.624-13.568-31.856-28.736-45.44-45.328l-230.128 229.376-135.68-135.36c-84.32-84.32-57.92-173.44 0-272l-90.56-89.92 90.56-90.56 90.56 90.56c78.368-46.368 151.28-72.048 220.128-37.696 42.912-126.144 162.096-217.024 302.752-217.024 176.736 0 320 143.264 320 320 0 140.864-91.12 260.192-217.552 302.944zM407.36 700.8l45.28 45.28 168.736-168.448c-22.848-6.096-44.704-14.48-65.232-25.216l-148.784 148.384zM226.24 520.32l45.76 45.12 148.496-148.496c-10.784-20.608-19.216-42.592-25.344-65.536l-168.912 168.912zM704 12.8c-141.376 0-256 114.624-256 256s114.624 256 256 256 256-114.624 256-256-114.624-256-256-256zM608 268.8c0-35.346-28.654-64-64-64s-64 28.654-64 64c0 35.346 28.654 64 64 64s64-28.654 64-64zM768 268.8c0-35.346-28.654-64-64-64s-64 28.654-64 64c0 35.346 28.654 64 64 64s64-28.654 64-64zM928 268.8c0-35.346-28.654-64-64-64s-64 28.654-64 64c0 35.346 28.654 64 64 64s64-28.654 64-64z" />
<glyph unicode="&#xaa009;" glyph-name="cs-fusion-apps" d="M731.429 369.371h-438.857c-161.583 0-292.571 130.989-292.571 292.571 0 171.682 139.175 310.857 310.857 310.857h402.286c171.682 0 310.857-139.175 310.857-310.857 0-161.583-130.989-292.571-292.571-292.571zM310.857 826.514c-90.89 0-164.571-73.681-164.571-164.571 0-80.791 65.494-146.286 146.286-146.286h438.857c80.791 0 146.286 65.494 146.286 146.286 0 90.89-73.681 164.571-164.571 164.571h-402.286zM310.857 58.514v-109.714h-73.143v310.857h237.714v-73.143h-164.571v-54.857h143.36v-73.143h-143.36zM693.76-51.2l-17.189 41.326h-128l-15.36-41.326h-82.103l152.32 310.857h36.571l138.971-310.857h-85.211zM613.486 153.234l-42.606-106.606h84.663z" />
<glyph unicode="&#xaa010;" glyph-name="cs-salesforce" d="M770.56 886.784c-26.999-0.035-52.804-5.104-76.541-14.319-32.872 47.62-87.861 77.9-149.923 77.9-43.502 0-83.53-14.878-115.272-39.822-33.361 38.214-82.307 61.973-136.803 61.973-101.326 0-183.467-82.141-183.467-183.467 0-28.878 6.672-56.198 18.558-80.502-55.955-21.212-94.41-74.564-94.41-136.897 0-81.909 66.4-148.309 148.309-148.309 16.372 0 32.124 2.653 46.85 7.552 30.015-63.637 94.026-106.47 168.041-106.47 69.196 0 129.648 37.437 162.208 93.161 14.27-2.781 30.101-4.89 46.425-4.89 49.898 0 95.196 19.7 128.538 51.747 12.147-2.541 26.18-3.962 40.545-3.962 117.726 0 213.163 95.436 213.163 213.163s-95.436 213.163-213.163 213.163c-1.076 0-2.15-0.008-3.222-0.024zM454.144 159.915c-0.823 7.156-3.518 13.56-7.577 18.865-3.814 4.712-8.66 8.575-14.193 11.236-5.634 2.747-11.885 4.77-18.452 5.855-6.21 1.083-12.937 1.701-19.797 1.76-3.81 0-8.93 0-15.245 0-6.787-0.606-13.046-1.996-18.971-4.091-5.474-1.844-10.618-5.062-14.825-9.224-3.925-4.121-6.342-9.716-6.342-15.875 0-0.418 0.011-0.833 0.033-1.246-0.011-0.16-0.016-0.415-0.016-0.671 0-4.702 1.612-9.028 4.312-12.455 2.836-3.478 6.359-6.347 10.366-8.405 4.199-2.184 8.864-3.941 13.754-5.119l14.417-4.694 61.269-9.899c23.305-3.255 43.959-12.706 60.791-26.617 12.756-12.676 20.78-30.48 20.78-50.157 0-1.691-0.059-3.367-0.176-5.028 0.047-0.724 0.066-1.837 0.066-2.955 0-15.656-3.805-30.424-10.542-43.428-6.471-11.735-15.817-21.791-27.085-29.147-11.764-7.593-25.141-13.214-39.468-16.266-14.79-3.286-30.878-5.090-47.386-5.090-0.176 0-0.352 0-0.527 0.001-15.979 0.027-31.507 2.017-46.347 5.741-14.629 3.329-28.716 9.22-41.42 17.125-12.5 8.136-23.413 18.777-31.933 31.189-9.327 14.097-15.435 30.525-17.279 48.22l63.79 0.466c1.918-8.695 5.925-16.256 11.473-22.4 5.547-5.384 12.178-9.769 19.519-12.779 7.182-3.398 15.040-5.896 23.283-7.248 7.939-1.358 16.505-2.102 25.242-2.117h14.179c7.187 0.662 13.795 2.050 20.101 4.107 5.943 1.87 11.638 5.084 16.484 9.257 4.634 4.642 7.539 11.129 7.539 18.294s-2.905 13.652-7.601 18.347c-5.379 3.613-11.645 6.434-18.366 8.106-10.477 2.475-21.57 4.694-33.346 6.401s-23.723 3.925-35.499 6.315c-13.55 2.838-24.985 6.075-36.101 9.991-9.248 3.202-18.977 8.414-27.653 14.948-8.204 6.285-15.050 14.442-19.858 23.816-4.953 10.257-7.74 21.841-7.74 34.076 0 0.94 0.016 1.876 0.049 2.808-0.060 0.996-0.092 2.321-0.092 3.653 0 28.514 14.722 53.59 36.979 68.041 11.263 7.372 24.070 12.816 37.804 15.76 13.51 3.409 28.278 5.499 43.462 5.929 0.336 0.006 0.394 0.007 0.452 0.007 15.543 0 30.592-2.118 44.873-6.081 13.292-3.464 25.983-9.328 37.299-17.057 10.796-7.579 20.004-17.494 26.822-28.993 7.354-12.7 11.731-27.343 12.182-42.969l-63.485-0.131zM630.613 67.584l-2.048-119.467h-66.219v307.2h221.867v-68.267h-153.6v-68.267h119.467v-51.2h-119.467z" />
<glyph unicode="&#xaa011;" glyph-name="cs-sap" d="M750.56 524.8h-76.48v-64h78.88c0.43-0.021 0.933-0.032 1.439-0.032 8.646 0 16.491 3.429 22.249 9.001 4.763 6.155 7.64 13.994 7.64 22.506 0 1.086-0.047 2.161-0.139 3.223 0.245 1.008 0.379 2.325 0.379 3.674 0 6.657-3.279 12.549-8.31 16.147-6.151 5.92-14.455 9.543-23.605 9.543-0.723 0-1.441-0.023-2.153-0.067zM394.080 402.4h74.080l-36.8 93.28-37.28-93.28zM0 908.8v-896h768l256 896h-1024zM274.72 357.76c-6.299-11.496-15.061-20.923-25.625-27.819-11.029-7.118-23.569-12.388-37.001-15.25-13.866-3.081-28.948-4.771-44.425-4.771-0.165 0-0.33 0-0.494 0.001-14.98 0.025-29.538 1.891-43.45 5.383-13.715 3.117-26.922 8.641-38.83 16.054-11.72 7.628-21.951 17.604-29.939 29.24-8.744 13.216-14.471 28.617-16.199 45.206l59.643 0.437c1.798-8.151 5.555-15.24 10.756-21 4.95-5.338 10.893-9.746 17.535-12.929 6.697-3.194 14.063-5.537 21.791-6.806 7.445-1.273 15.475-1.971 23.665-1.985h13.293c6.738 0.621 12.933 1.922 18.844 3.851 5.572 1.753 10.911 4.766 15.454 8.679 4.345 4.352 7.068 10.434 7.068 17.151s-2.723 12.799-7.126 17.2c-5.043 3.384-10.918 6.028-17.217 7.599-9.823 2.321-20.223 4.401-31.263 6.001s-22.56 4.8-33.6 7.68c-12.698 2.657-23.419 5.692-33.839 9.365-8.677 3.001-17.798 7.886-25.93 14.015-7.692 5.893-14.111 13.54-18.618 22.328-4.646 9.63-7.26 20.505-7.26 31.99 0 0.922 0.017 1.84 0.050 2.754-0.057 0.928-0.087 2.17-0.087 3.419 0 26.732 13.802 50.241 34.668 63.789 10.559 6.911 22.565 12.015 35.441 14.775 13 2.964 27.134 4.595 41.648 4.605 0.040 0 0.079 0 0.119 0 14.587 0 28.71-1.986 42.113-5.702 12.459-3.251 24.357-8.748 34.967-15.992 10.117-7.108 18.748-16.403 25.144-27.18 6.889-11.908 10.991-25.634 11.42-40.282l-59.517-0.125c-0.772 6.709-3.298 12.712-7.103 17.686-3.576 4.418-8.119 8.039-13.306 10.534-5.282 2.575-11.142 4.472-17.299 5.489-5.828 1.023-12.135 1.603-18.568 1.651q-5.484 0-14.284 0c-6.452-0.676-12.36-2.087-17.943-4.164-5.133-1.72-9.956-4.737-13.9-8.639-3.681-3.841-5.949-9.067-5.949-14.823 0-0.413 0.012-0.823 0.035-1.231-0.010-0.147-0.015-0.387-0.015-0.627 0-4.408 1.511-8.464 4.043-11.677 2.662-3.257 5.964-5.946 9.718-7.88 3.937-2.048 8.31-3.696 12.895-4.8l13.676-2.961 58.080-11.2c21.849-3.051 41.212-11.912 56.992-24.954 11.959-11.884 19.481-28.575 19.481-47.022 0-1.585-0.056-3.157-0.165-4.714 0.032-0.498 0.044-1.331 0.044-2.166 0-14.664-3.561-28.496-9.864-40.679zM501.6 316.8l-14.56 36.16h-112l-13.92-36.16h-71.84l128 274.24h36.8l121.92-274.24h-74.4zM821.6 437.44c-8.058-7.535-17.56-13.647-28.030-17.863-10.703-4.368-22.419-6.777-34.698-6.777-0.11 0-0.219 0-0.329 0.001h-86.543v-96h-64v272l153.6 2.24c0.411 0.007 0.896 0.011 1.383 0.011 13.484 0 26.222-3.195 37.497-8.87 10.307-5.343 19.332-12.884 26.426-22.001 7.021-9.002 12.486-19.332 15.953-30.54 3.324-9.065 5.142-18.754 5.142-28.869 0-0.159 0-0.317-0.001-0.476 0.002-0.212 0.004-0.492 0.004-0.772 0-12.517-2.712-24.401-7.58-35.095-4.41-10.178-10.725-19.313-18.494-26.979z" />
<glyph unicode="&#xaa012;" glyph-name="cs-scheduler" d="M128 620.8h128v-128h-128v128zM320 620.8h128v-128h-128v128zM128 460.8h128v-128h-128v128zM160 972.8h64v-128h-64v128zM544 972.8h64v-128h-64v128zM1017.44 332.96c-25.664 125.6-123.84 223.76-249.44 249.44v294.4h-128v-64h-128v64h-256v-64h-128v64h-128v-672h390.4c35.392-173.152 204.448-284.848 377.6-249.44 173.152 35.376 284.848 204.448 249.44 377.6zM390.4 332.8c-4.272-21.056-6.416-42.496-6.4-64h-320v416h640v-96c-21.504 0.016-42.944-2.128-64-6.4v38.4h-128v-96c-24.24-18.224-45.776-39.76-64-64h-128v-128h70.4zM957.744 236.8c-14.688-115.84-105.904-207.056-221.744-221.744v61.744h-64v-61.744c-115.84 14.688-207.056 105.904-221.744 221.744h61.744v64h-61.76c14.704 115.84 105.92 207.056 221.76 221.744v-61.744h64v61.76c115.84-14.704 207.056-105.92 221.744-221.76h-61.744v-64h61.744zM699.024 295.36l-90.56 90.416-45.248-45.296 135.808-135.68 180.976 180.976-45.28 45.28z" />
<glyph unicode="&#xaa013;" glyph-name="cs-user-group" d="M727.664 523.008c59.024 15.872 96.912 110.32 62.896 144.352-0.272 0.336-0.624 0.576-0.896 0.896 26.512 66.24 52.352 181.936-70.32 215.216-29.184 48.288-89.072 87.104-206.24 87.408-249.808 0.704-257.952-228.544-255.872-288.048-6.208-1.76-12.176-4.768-17.456-9.152-2.304-1.904-4.416-4.016-6.336-6.336-34.384-34.384 4.624-130.56 64.736-144.896 18.688-39.488 44.064-76.672 74.144-106.304 44.48-44 92.48-67.36 140.48-67.36h0.48c86.4 0.016 169.296 80.176 214.384 174.224zM514.080 413.6c-30.56 0-64 16-96 48-52.8 52.64-89.76 134.72-89.76 199.68 0 6.848 0.416 13.584 1.2 20.192 144.4 29.44 247.328 75.2 311.088 110.832 6.576-41.088 22.704-87.6 58.688-125.024 0.032-1.312 0.224-2.608 0.24-3.92 0-102.88-95.856-249.76-185.456-249.76zM475.52 260.48l-109.28 91.024-218.56-109.264 112-291.52h179.2l36.48 218.544c0 0-81.44 19.536 0.16 91.216zM548.464 260.48c81.616-71.68 0-91.216 0-91.216l36.336-218.544h179.52l112 291.52-218.56 109.28-109.296-91.040zM164 469.44l-54.72 45.6-109.28-54.24 48-144h96l20 107.2c0 0-40.96 9.44 0 45.44zM200.48 423.824l23.52-107.024h6.88l104.16 48 4.64 16c-42.176 31.872-79.328 69.904-110.24 112.8l-28.96-24.16c40.8-36 0-45.616 0-45.616zM79.040 599.92c9.232-21.456 22.416-41.184 39.2-58 18.24-20.064 43.776-32 70.88-33.12 15.328 0.464 30.256 5.056 43.2 13.28l-20.8 24.64c-6.912-3.696-14.576-5.712-22.4-5.92-18.544 1.584-35.744 10.304-48 24.32-26.704 26.672-42.752 62.176-45.12 99.84-0.208 3.408-0.208 6.832 0 10.24 29.248 5.872 58.016 13.888 86.080 24 2.56 42.384 17.216 83.136 42.24 117.44-11.936 2.16-24.032 3.232-36.16 3.2-118.576 0-128.656-102.336-128.512-138.512-4.976-0.384-9.856-2.224-13.936-5.696-0.96-0.816-1.856-1.712-2.672-2.672-17.936-17.936 3.904-69.472 36-73.040zM914.72 515.040l-54.72-45.6c40.976-36 0-45.44 0-45.44l20-107.2h96l48 144-109.28 54.24zM823.536 469.44l-28.976 24.16c-30.912-42.896-68.064-80.928-110.256-112.8l4.656-16 104.16-48h6.88l23.536 107.024c0 0-40.816 9.616 0 45.616zM835.024 508.48c26.992 1.456 52.272 13.6 70.256 33.76 32.848 32.688 52.336 76.432 54.72 122.72 0 1.44 0 2.88 0 4.32h3.024c0 0 12.976 133.92-105.104 148.96 8.352-41.184 8.352-83.616 0-124.8 22.704-7.488 45.84-13.648 69.28-18.4 0.208-3.408 0.208-6.832 0-10.24-2.304-37.632-18.224-73.12-44.8-99.84-12.256-14.016-29.472-22.736-48-24.32-4.080 0.064-8.128 0.72-12 1.92-4-10-9.376-19.36-16-27.84 9.056-3.904 18.784-6.016 28.624-6.24z" />
<glyph unicode="&#xaa014;" glyph-name="cs-user-hierarchy" d="M160 396.8h320v-128h64v128h320v-128h64v192h-384v192h-64v-192h-384v-192h64zM448 716.8h128c35.344 0 64 28.656 64 64v128c0 35.344-28.656 64-64 64h-128c-35.344 0-64-28.656-64-64v-128c0-35.344 28.656-64 64-64zM576 204.8h-128c-35.344 0-64-28.656-64-64v-128c0-35.344 28.656-64 64-64h128c35.344 0 64 28.656 64 64v128c0 35.344-28.656 64-64 64zM192 204.8h-128c-35.344 0-64-28.656-64-64v-128c0-35.344 28.656-64 64-64h128c35.344 0 64 28.656 64 64v128c0 35.344-28.656 64-64 64zM960 204.8h-128c-35.344 0-64-28.656-64-64v-128c0-35.344 28.656-64 64-64h128c35.344 0 64 28.656 64 64v128c0 35.344-28.656 64-64 64z" />
<glyph unicode="&#xaa015;" glyph-name="cs-user-management" d="M517.6 592.96c47.040 19.84 75.36 96 47.040 123.84l-4.64 3.68c22.256 56.16 48 161.28-64 183.84-27.36 38.4-80 68.16-176 68.48-216.8 0-225.6-190.080-224-242.56-7.92-2.736-15.056-7.344-20.8-13.44-28.64-28.64 0.8-106.080 49.12-124.64 14.496-30.912 34.192-59.12 58.24-83.36 35.632-38.56 84.992-61.552 137.44-64 79.2 0 157.92 65.28 197.6 148.16zM320.96 508.8c-35.744 2.48-69.12 18.848-92.96 45.6-39.6 38.784-63.12 91.040-65.92 146.4 0.032 9.568 0.992 19.104 2.88 28.48 89.744 17.808 176.128 49.616 256 94.24l4.32-3.84c3.328-38.16 22.768-73.072 53.44-96 1.216-7.408 1.856-14.896 1.92-22.4-0.64-91.2-83.84-192.48-159.68-192.48zM288 348.8l-96 80-192-96 98.72-256h157.28l32 192c0 0-71.68 16 0 80zM754.88 281.92c26.256 65.632-5.68 140.128-71.312 166.368-25.632 10.24-53.872 11.936-80.528 4.816l78.256-78.24-90.416-90.064-78.88 77.744c-18.208-68.304 22.4-138.432 90.72-156.624 26.192-7.008 53.92-5.472 79.2 4.32l131.2-131.184 72 72-130.24 130.864zM704 588.8c-176.736 0-320-143.264-320-320s143.264-320 320-320 320 143.264 320 320-143.264 320-320 320zM704 12.8c-141.376 0-256 114.624-256 256s114.624 256 256 256 256-114.624 256-256-114.624-256-256-256z" />
<glyph unicode="&#xaa016;" glyph-name="cs-user" horiz-adv-x="731" d="M366.494 348.378c-48.181 0-96.361 23.448-141.009 67.614-65.205 64.241-108.888 163.814-108.888 245.882 3.275 137.282 113.125 247.86 249.805 252.296l0.413 0.011c68.86-1.131 130.811-29.799 175.495-75.439 45.869-44.566 74.477-106.598 75.043-175.316-0.16-137.26-121.415-315.047-250.378-315.047v0zM367.458 849.939v0c-87.849 0-186.138-80.301-186.138-187.905 0-65.205 37.099-147.593 90.098-200.432 32.12-32.12 65.686-48.181 96.361-48.181v0c89.937 0 186.138 147.433 186.138 250.7-0.592 51.046-21.947 96.991-55.997 129.876-33.307 33.92-79.33 55.152-130.315 55.939zM574.474 846.245s-148.236-129.445-463.659-176.662c0 0-32.12 304.020 256 303.217 312.371-0.803 219.383-274.309 219.383-274.309zM329.074 259.726l-109.691 91.383-219.383-109.691 112.422-292.617h179.875l36.617 219.383s-81.747 19.593 0.161 91.543zM402.309 259.726l109.691 91.383 219.383-109.691-112.422-292.617h-180.196l-36.457 219.383s81.907 19.593 0 91.543zM494.173 894.426s-36.778-201.877 127.518-273.024c0 0 161.566 273.024-127.518 273.024zM160.281 668.138c-8.901 10.687-22.211 17.439-37.099 17.439s-28.198-6.752-37.036-17.362c-39.41-39.425 16.961-159.395 91.32-146.386zM571.102 668.138c8.901 10.687 22.211 17.439 37.099 17.439s28.198-6.752 37.036-17.362c39.41-39.425-16.961-159.395-91.32-146.386z" />
<glyph unicode="&#xaa017;" glyph-name="cs-widgets" d="M511.488 972.8c-0.11 0-0.239 0-0.369 0-263.353 0-476.843-213.49-476.843-476.843 0-134.272 55.497-255.581 144.804-342.242l664.695-0.115c89.427 86.776 144.924 208.086 144.924 342.357 0 263.353-213.49 476.843-476.843 476.843-0.13 0-0.259 0-0.389 0zM477.355 870.4c0 18.851 15.282 34.133 34.133 34.133s34.133-15.282 34.133-34.133v-68.267c0-18.851-15.282-34.133-34.133-34.133s-34.133 15.282-34.133 34.133v68.267zM204.288 358.4h-68.267c-18.851 0-34.133 15.282-34.133 34.133s15.282 34.133 34.133 34.133h68.267c18.851 0 34.133-15.282 34.133-34.133s-15.282-34.133-34.133-34.133zM279.552 627.371c-6.178-6.185-14.717-10.011-24.149-10.011s-17.971 3.826-24.149 10.011l-48.299 48.299c-6.18 6.18-10.003 14.718-10.003 24.149 0 18.862 15.291 34.152 34.152 34.152 9.431 0 17.969-3.823 24.149-10.003l48.299-48.299c6.033-6.152 9.757-14.588 9.757-23.893s-3.724-17.742-9.763-23.899zM686.251 473.771l-94.549-221.867c-9.722-22.14-31.454-37.322-56.733-37.322-34.121 0-61.781 27.66-61.781 61.781 0 13.054 4.048 25.162 10.958 35.137l136.399 197.939c6.921 9.662 18.111 15.883 30.755 15.883 20.831 0 37.717-16.887 37.717-37.717 0-5.11-1.016-9.982-2.857-14.427zM743.424 628.395v0c-6.185 6.178-10.011 14.717-10.011 24.149s3.826 17.971 10.011 24.149l48.299 48.299c6.178 6.185 14.717 10.011 24.149 10.011s17.971-3.826 24.149-10.011v0c6.185-6.178 10.011-14.717 10.011-24.149s-3.826-17.971-10.011-24.149l-48.299-48.299c-6.187-6.236-14.76-10.096-24.235-10.096-9.39 0-17.894 3.792-24.066 9.927zM886.955 358.4h-68.267c-18.851 0-34.133 15.282-34.133 34.133s15.282 34.133 34.133 34.133h68.267c18.851 0 34.133-15.282 34.133-34.133s-15.282-34.133-34.133-34.133z" />
<glyph unicode="&#xaa018;" glyph-name="cs-loader-template" d="M704 588.8c-78.992 0-151.152-28.752-206.976-76.176-32.256-2.736-64.624-4.112-97.024-3.824-333.28 0-400 112-400 112v-190.72c0 0 18.608-95.568 390.432-97.2-4.208-20.704-6.432-42.128-6.432-64.080 0-10.752 0.576-21.376 1.616-31.84-320.656 3.2-385.616 111.84-385.616 111.84v-190.72c0 0 18.72-97.28 400-97.28 21.376 0 41.216 0.416 60.096 1.104 58.704-69.12 146.112-113.104 243.904-113.104 176.736 0 320 143.264 320 320s-143.264 320-320 320zM704 12.8c-141.376 0-256 114.624-256 256s114.624 256 256 256 256-114.624 256-256-114.624-256-256-256zM392.64 588.8c381.44 0 375.36 112 375.36 112v160c1.136 4.848 1.136 9.888 0 14.72v1.28c-6.88 30.72-67.36 96-375.2 96-335.040 0-381.28-74.24-390.88-98.88l-1.92 2.88v-190.72c0 0 11.36-97.28 392.64-97.28zM392.64 908.8c141.44 0 247.36-28.64 247.36-64s-105.92-64-247.36-64-264.64 28.64-264.64 64 123.36 64 264.64 64zM751.712 327.504l80.288 85.296h-256v-272l87.952 93.456 141.488-141.488 90.496 90.512z" />
<glyph unicode="&#xaa019;" glyph-name="cs-extract-template" d="M740.72 586.528c-12.064 1.392-24.288 2.272-36.72 2.272-78.992 0-151.152-28.752-206.976-76.176-32.256-2.736-64.624-4.112-97.024-3.824-333.28 0-400 112-400 112v-190.72c0 0 18.608-95.568 390.432-97.2-4.208-20.704-6.432-42.128-6.432-64.080 0-10.752 0.576-21.376 1.616-31.84-320.656 3.2-385.616 111.84-385.616 111.84v-190.72c0 0 18.72-97.28 400-97.28 21.376 0 41.216 0.416 60.096 1.104 58.704-69.12 146.112-113.104 243.904-113.104 176.736 0 320 143.264 320 320 0 154.816-109.936 283.92-256 313.584l-27.28 4.144zM704 12.8c-141.376 0-256 114.624-256 256s114.624 256 256 256 256-114.624 256-256-114.624-256-256-256zM392.64 588.8c381.44 0 375.36 112 375.36 112v160c1.136 4.848 1.136 9.888 0 14.72v1.28c-6.88 30.72-67.36 96-375.2 96-335.040 0-381.28-74.24-390.88-98.88l-1.92 2.88v-190.72c0 0 11.36-97.28 392.64-97.28zM392.64 908.8c141.44 0 247.36-28.64 247.36-64s-105.92-64-247.36-64-264.64 28.64-264.64 64 123.36 64 264.64 64zM618.464 460.832l-90.496-90.512 144.272-144.272-80.24-85.248h256v272l-88-93.504z" />
<glyph unicode="&#xaa020;" glyph-name="cs-loader-workbench" d="M754.544 282.208c1.776 4.496 3.392 9.104 4.672 13.904 18.352 68.272-22.112 138.48-90.368 156.832-21.552 5.792-44.24 5.856-65.808 0.176l78.256-78.24-90.416-90.080-78.88 77.744c-18.352-68.256 22.128-138.464 90.368-156.832 27.584-7.424 55.424-5.088 80.096 4.64l131.376-131.36 71.936 71.952-131.232 131.264zM704 588.8c-61.024 0-117.856-17.392-166.384-47.040l-89.824 89.824 80.208 85.216h-256v-272l87.968 93.472 83.76-83.76c-7.504-10.512-14.608-21.328-20.816-32.704l-38.912 38.992-96-96h-64v156.96c-181.76 29.44-224 99.040-224 99.040v-190.72c0 0 18.608-95.568 390.432-97.2-4.208-20.704-6.432-42.128-6.432-64.080 0-10.752 0.576-21.376 1.616-31.84-320.656 3.2-385.616 111.84-385.616 111.84v-190.72c0 0 18.72-97.28 400-97.28 21.376 0 41.216 0.416 60.096 1.104 58.704-69.12 146.112-113.104 243.904-113.104 176.736 0 320 143.264 320 320s-143.264 320-320 320zM704 12.8c-141.376 0-256 114.624-256 256s114.624 256 256 256 256-114.624 256-256-114.624-256-256-256zM224 596.96v167.84h400v-48l-120-120 4-4c264.464 20 260 108 260 108v160c1.136 4.848 1.136 9.888 0 14.72v1.28c-6.88 30.72-67.36 96-375.2 96-335.040 0-381.28-74.24-390.88-98.88l-1.92 2.88v-190.72c0 0 8.32-65.28 224-89.12zM392.64 908.8c141.28 0 247.36-28.64 247.36-64s-105.92-64-247.36-64c-141.28 0-264.64 28.64-264.64 64s123.36 64 264.64 64z" />
<glyph unicode="&#xaa021;" glyph-name="cs-transformation-api" d="M485.536 492.896l-141.536-141.552 90.496-90.512 144.144 144.144 93.36-88.176v272h-288zM384 972.8v-352h128v224h384v-384h-192v-128h320v640zM288 236.8v221.76c-10.608 1.456-21.296 2.208-32 2.24-141.376 0-256-114.624-256-256s114.624-256 256-256 256 114.624 256 256c-0.080 10.72-0.896 21.408-2.4 32h-221.6z" />
<glyph unicode="&#xaa022;" glyph-name="cs-prevalidation-api" d="M1024 396.8v128h-133.408c-9.792 58.368-32.768 112.256-65.744 158.528l94.272 94.256-90.512 90.512-94.288-94.288c-46.24 32.896-100.032 55.792-158.32 65.584v133.408h-128v-133.408c-58.368-9.792-112.24-32.752-158.528-65.728l-94.368 94.368-90.512-90.512 94.4-94.4c-32.896-46.24-55.792-100.032-65.584-158.32h-133.408v-128h133.408c9.792-58.368 32.752-112.256 65.728-158.528l-94.256-94.256 90.512-90.512 94.288 94.304c46.24-32.912 100.032-55.808 158.32-65.6v-133.408h128v133.408c58.368 9.792 112.256 32.768 158.528 65.744l94.368-94.368 90.496 90.496-94.4 94.4c32.912 46.24 55.808 100.032 65.6 158.32h133.408zM512 204.8c-141.376 0-256 114.624-256 256s114.624 256 256 256c141.376 0 256-114.624 256-256s-114.624-256-256-256zM518.080 599.52l-126.080-175.040-70.24 46.88-35.52-53.12 121.76-81.12 161.92 224.96zM560 492.8h160v-64h-160v64z" />
<glyph unicode="&#xaa023;" glyph-name="cs-data-object" d="M824 562v186.8l-192 224h-576v-512h128v384h416v-112h96v-144c-16.352 0-32.304-1.616-48-3.984v3.984h-400v-64h256.576c-77.92-58.368-128.576-151.136-128.576-256 0-72.144 24.16-138.48 64.432-192h-256.432v64h-128v-192h624c-0.576 0.208-1.504 0.656-2.176 0.928 6.048-0.352 12.032-0.928 18.176-0.928 176.736 0 320 143.264 320 320 0 131.184-79.024 243.792-192 293.2zM696 12.8c-141.376 0-256 114.624-256 256s114.624 256 256 256 256-114.624 256-256-114.624-256-256-256zM248 716.8h384v-64h-384v64zM136 265.264h96v-91.664h-96v91.664zM104 220.8c0-26.51-21.49-48-48-48s-48 21.49-48 48c0 26.51 21.49 48 48 48s48-21.49 48-48zM360 220.8c0-26.51-21.49-48-48-48s-48 21.49-48 48c0 26.51 21.49 48 48 48s48-21.49 48-48zM136 425.264h96v-91.664h-96v91.664zM104 380.8c0-26.51-21.49-48-48-48s-48 21.49-48 48c0 26.51 21.49 48 48 48s48-21.49 48-48zM360 380.8c0-26.51-21.49-48-48-48s-48 21.49-48 48c0 26.51 21.49 48 48 48s48-21.49 48-48zM920 236.8v64h-67.216c-4.144 20.448-12.24 39.472-23.376 56.272l47.552 47.552-45.264 45.248-47.568-47.568c-16.784 11.088-35.728 19.152-56.128 23.28v67.216h-64v-67.216c-20.448-4.144-39.472-12.24-56.272-23.376l-47.6 47.6-45.264-45.264 47.616-47.616c-11.088-16.784-19.152-35.728-23.28-56.128h-67.2v-64h67.216c4.144-20.448 12.24-39.472 23.376-56.272l-47.552-47.552 45.264-45.264 47.584 47.584c16.768-11.088 35.712-19.152 56.112-23.28v-67.216h64v67.216c20.448 4.144 39.456 12.24 56.272 23.376l47.584-47.6 45.248 45.264-47.616 47.616c11.088 16.768 19.168 35.728 23.296 56.128h67.216zM696 172.8c-53.008 0-96 42.992-96 96s42.992 96 96 96 96-42.992 96-96-42.992-96-96-96z" />
<glyph unicode="&#xaa024;" glyph-name="cs-data-extract-template" d="M704 588.8c-116.928 0-218.88-62.896-274.72-156.496v239.216l-87.968-93.472-122.752 122.752-90.56-90.56 125.504-125.488-80.224-85.232h238.832c-17.92-39.936-28.112-84.112-28.112-130.72 0-10.752 0.576-21.376 1.616-31.84-320.656 3.2-385.616 111.84-385.616 111.84v-190.72c0 0 18.72-97.28 400-97.28 21.44 0 41.2 0.272 60.192 1.008 58.688-69.056 146.064-113.008 243.808-113.008 176.736 0 320 143.264 320 320s-143.264 320-320 320zM704 12.8c-141.376 0-256 114.624-256 256s114.624 256 256 256 256-114.624 256-256-114.624-256-256-256zM72.96 374.72l9.28 6.080h-2.24l96 96-78.24 78.24c-76.64 30.72-97.76 65.76-97.76 65.76v-190.72c0 0 5.76-29.12 72.96-55.36zM72.48 629.12l144 144 119.52-120.32 104 104 48-48v-117.28c284.976 16.96 280 109.28 280 109.28v160c1.136 4.848 1.136 9.888 0 14.72v1.28c-6.88 30.72-67.36 96-375.2 96-335.040 0-381.28-74.24-390.88-98.88l-1.92 2.88v-190.72c0 0 3.68-30.080 72.48-56.96zM392.64 908.8c141.28 0 247.36-28.64 247.36-64s-105.92-64-247.36-64c-141.28 0-264.64 28.64-264.64 64s123.36 64 264.64 64zM514.24 412.8h365.76v-128h-365.76v128zM512 252.8h128v-128h-128v128zM672 252.8h208v-128h-208v128z" />
<glyph unicode="&#xaa025;" glyph-name="cs-data-extract-adapter" d="M704 588.8c-116.928 0-218.88-62.896-274.72-156.496v239.216l-87.968-93.472-122.752 122.752-90.56-90.56 125.504-125.488-80.224-85.232h238.832c-17.92-39.936-28.112-84.112-28.112-130.72 0-10.752 0.576-21.376 1.616-31.84-320.656 3.2-385.616 111.84-385.616 111.84v-190.72c0 0 18.72-97.28 400-97.28 21.44 0 41.2 0.272 60.192 1.008 58.688-69.056 146.064-113.008 243.808-113.008 176.736 0 320 143.264 320 320s-143.264 320-320 320zM704 12.8c-141.376 0-256 114.624-256 256s114.624 256 256 256 256-114.624 256-256-114.624-256-256-256zM72.96 374.72l7.040 6.080 96 96-78.24 78.24c-76.64 30.72-97.76 65.76-97.76 65.76v-190.72c0 0 5.76-29.12 72.96-55.36zM72.48 629.12l144 144 119.52-120.32 104 104 48-48v-117.28c284.976 16.96 280 109.28 280 109.28v160c1.136 4.848 1.136 9.888 0 14.72v1.28c-6.88 30.72-67.36 96-375.2 96-335.040 0-381.28-74.24-390.88-98.88l-1.92 2.88v-190.72c0 0 3.68-30.080 72.48-56.96zM392.64 908.8c141.28 0 247.36-28.64 247.36-64s-105.92-64-247.36-64c-141.28 0-264.64 28.64-264.64 64s123.36 64 264.64 64zM800 460.8h-64v-64h-64v64h-64v-64h-64v-120c0-74.56 59.024-102.256 128-120v-80h64v80c68.976 17.744 128 45.44 128 120v120h-64v64zM784 268.8h-160v64h160v-64z" />
<glyph unicode="&#xaa026;" glyph-name="cs-sql-extract" d="M768 582.384v390.416h-768v-896l384-128 149.136 49.744c49.472-31.344 107.952-49.744 170.864-49.744 176.736 0 320 143.264 320 320 0 154.816-109.936 283.92-256 313.584zM128 204.8v640h513.28v-262.24c-146.688-29.152-257.28-158.496-257.28-313.76 0-52.896 13.056-102.656 35.776-146.624l-35.776-13.376-256 96zM704 12.8c-141.376 0-256 114.624-256 256s114.624 256 256 256 256-114.624 256-256-114.624-256-256-256zM264 684.8l-29.12 4.8-6.56 1.44c-2.272 0.528-4.48 1.344-6.56 2.4-1.904 0.992-3.584 2.336-4.96 4-1.376 1.712-2.112 3.872-2.080 6.080-0.144 2.976 0.96 5.872 3.040 8 2.016 2.032 4.48 3.568 7.2 4.48 2.8 0.928 5.696 1.52 8.64 1.76h7.040c3.024 0.24 6.080 0.24 9.12 0 3.056-0.48 6.016-1.392 8.8-2.72 2.672-1.264 5.024-3.12 6.88-5.44 1.952-2.56 3.152-5.6 3.52-8.8h29.76c-0.256 6.912-2.176 13.664-5.6 19.68-3.2 5.52-7.568 10.272-12.8 13.92-5.456 3.728-11.52 6.496-17.92 8.16-6.672 1.808-13.568 2.72-20.48 2.72-6.896 0-13.76-0.752-20.48-2.24-6.368-1.328-12.448-3.824-17.92-7.36-11.44-7.328-18.096-20.192-17.44-33.76-0.208-5.904 0.992-11.776 3.52-17.12 2.176-4.352 5.296-8.176 9.12-11.2 4.176-3.104 8.816-5.536 13.76-7.2 5.248-1.824 10.592-3.328 16-4.48 4.688-1.168 10.032-2.176 16-3.040 5.984-0.848 11.312-1.872 16-3.040 3.136-0.752 6.112-2.064 8.8-3.84 4.688-4.736 4.688-12.384 0-17.12-2.336-2.016-5.056-3.552-8-4.48-2.976-0.928-6.016-1.504-9.12-1.76h-6.56c-3.92 0-7.824 0.32-11.68 0.96-3.76 0.608-7.424 1.744-10.88 3.36-3.376 1.584-6.432 3.808-8.96 6.56-2.688 2.944-4.56 6.528-5.44 10.4h-29.92c0.8-8.096 3.552-15.904 8-22.72 4.24-6.064 9.68-11.184 16-15.040 6.112-3.856 12.816-6.672 19.84-8.32 6.912-1.68 14-2.544 21.12-2.56 7.424-0.048 14.816 0.704 22.080 2.24 6.656 1.344 12.992 3.904 18.72 7.52 5.44 3.52 9.904 8.368 12.96 14.080 3.392 6.672 5.040 14.112 4.8 21.6 0.64 9.6-2.928 19.008-9.76 25.76-8.16 6.672-18.032 10.944-28.48 12.32zM395.040 603.040c3.68 0.656 7.328 1.568 10.88 2.72 1.856-2.976 4-5.76 6.4-8.32 2.832-3.088 5.888-5.984 9.12-8.64 3.264-2.944 6.8-5.568 10.56-7.84 2.752-1.664 5.792-2.784 8.96-3.36l12.32 23.040c-4.624 2.096-9.056 4.544-13.28 7.36-4.16 2.784-7.92 6.128-11.2 9.92 7.968 6.72 14.304 15.136 18.56 24.64 8.432 19.568 8.992 41.632 1.6 61.6-3.248 8.352-8.208 15.936-14.56 22.24-6.368 6.208-13.936 11.056-22.24 14.24-8.976 3.456-18.528 5.2-28.16 5.12-9.136 0.144-18.24-1.328-26.88-4.32-8.496-3.184-16.272-8.032-22.88-14.24-6.784-6.256-12.24-13.808-16-22.24-3.952-9.136-5.92-19.008-5.76-28.96-0.128-10.208 1.6-20.336 5.12-29.92 3.216-8.688 8.176-16.64 14.56-23.36 6.352-6.896 14.096-12.336 22.72-16 9.248-3.712 19.152-5.568 29.12-5.44 3.728 0.272 7.408 0.864 11.040 1.76zM367.68 634.24c-4.544 2.096-8.592 5.152-11.84 8.96-3.328 4.016-5.888 8.64-7.52 13.6-3.52 10.752-3.52 22.352 0 33.12 1.632 4.928 4.176 9.488 7.52 13.44 3.216 3.808 7.2 6.912 11.68 9.12 4.976 2.4 10.464 3.552 16 3.36 5.488 0.080 10.96-1.008 16-3.2 4.656-2.080 8.8-5.136 12.16-8.96 3.408-4.032 5.968-8.72 7.52-13.76 1.76-5.648 2.64-11.52 2.56-17.44 0.032-5.456-0.944-10.896-2.88-16-1.792-4.864-4.448-9.36-7.84-13.28-3.328-3.792-7.408-6.848-12-8.96-4.72-2.16-9.856-3.248-15.040-3.2h-0.8c-5.344-0.080-10.64 1.008-15.52 3.2zM584.8 634.56h-80v107.36h-33.44v-137.12h113.44zM928 236.8v64h-67.216c-4.144 20.448-12.24 39.472-23.376 56.272l47.552 47.552-45.264 45.248-47.568-47.568c-16.784 11.088-35.728 19.152-56.128 23.28v67.216h-64v-67.216c-20.448-4.144-39.472-12.24-56.272-23.376l-47.6 47.6-45.264-45.264 47.632-47.632c-11.088-16.768-19.152-35.712-23.28-56.112h-67.216v-64h67.216c4.144-20.448 12.24-39.472 23.376-56.272l-47.552-47.552 45.264-45.264 47.584 47.584c16.768-11.088 35.712-19.152 56.112-23.28v-67.216h64v67.216c20.448 4.144 39.456 12.24 56.272 23.376l47.584-47.6 45.248 45.264-47.616 47.616c11.088 16.768 19.168 35.728 23.296 56.128h67.216zM704 172.8c-53.008 0-96 42.992-96 96s42.992 96 96 96 96-42.992 96-96-42.992-96-96-96z" />
<glyph unicode="&#xaa027;" glyph-name="cs-data-flow" d="M1023.2 236.8c0 0-34.736-112-368-112-333.28 0-400 112-400 112v-190.72c0 0 18.72-97.28 400-97.28 381.264 0 368 112 368 112v176zM1023.2 508.8c0 0-34.736-112-368-112-83.168-1.6-166.176 7.744-246.88 27.84l-146.4-119.040c19.84-26.24 97.44-84.8 393.28-84.8 381.264 0 368 112 368 112v176zM224 686.4v94.4l113.12-96h0.912l189.968-160-57.12-39.040c58.768-6.352 117.856-9.328 176.96-8.96 381.28 0 375.36 112 375.36 112v160c1.136 4.848 1.136 9.888 0 14.72v1.28c-6.896 30.72-67.36 96-375.2 96-25.712 0-49.568-0.48-72-1.312v29.312c0.88 3.632 0.88 7.408 0 11.040-5.28 23.68-50.72 72.96-281.44 72.96-251.2 0-285.92-55.68-293.12-74.080l-1.44 2.080v-143.040c0 0 7.2-60.48 224-71.36zM895.2 732.8c0-35.36-105.92-64-247.36-64s-264.64 28.64-264.64 64 123.36 64 264.64 64 247.36-28.64 247.36-64zM294.56 924.8c106.080 0 185.44-21.44 185.44-48 0-10.592-12.896-20.336-34.896-28.288-31.328-4.528-57.456-10.048-79.184-16.144-21.792-2.288-45.808-3.568-71.36-3.568-106.080 0-198.56 21.44-198.56 48s92.48 48 198.56 48zM32 534.88v101.92h121.6c-124.48 23.2-153.6 72-153.6 72v-143.040c0 0 2.88-14.72 32-30.88zM224 300.8v0 112h-192v64c-12.528 7.168-23.424 16.88-32 28.48v-143.040c0 0-19.36-65.28 224-72.32v10.88zM448 524.8l-192 176v-112h-192v-128h192v-112z" />
<glyph unicode="&#xaa028;" glyph-name="cs-data-flow-workbench" d="M0 708.8v-143.040c0 0 2.88-14.72 32-30.88v101.92h121.6c-124.48 23.2-153.6 72-153.6 72zM448 524.8l-192 176v-112h-192v-128h192v-112zM512 220.8v-64l192-65.744 191.536 64.144 0.464 65.6-192-62.256zM512 332.8v-64l184.16-67.024 199.84 67.024v64l-192-62.256zM512 396.8l192-64 192 64-192 64zM224 412.8h-192v64c-12.528 7.168-23.424 16.88-32 28.48v-143.040c0 0 12.64-59.28 224.256-70.944l-0.256 12.512v108.992zM1008.112 143.44v269.76h-0.112v95.6c0 0-8.976-27.84-58.88-55.68-13.952 19.6-30.064 37.584-48 53.6 108.48 33.28 106.080 82.080 106.080 82.080v160c1.136 4.848 1.136 9.888 0 14.72v1.28c-6.896 30.72-67.36 96-375.2 96-25.6 0-49.44 0-71.84-1.28v29.28c0.864 3.632 0.864 7.408 0 11.040-5.44 23.68-50.88 72.96-281.6 72.96-251.2 0-285.92-55.68-293.12-74.080l-1.44 2.080v-143.040c0 0 7.2-60.48 224-71.36v94.4l43.2-36.32 69.92-59.68 183.68-154.72c-40.752-28.464-74.384-65.984-98.24-109.6l-149.952-122.528-7.216-7.776c0.128 0 0.24-0.016 0.368-0.016 12.192-14.432 41.536-26.080 119.52-44.56 2.256-31.52 9.216-62.528 20.64-92-119.84 33.12-149.92 83.2-149.92 83.2v-190.72c0 0 18.56-97.28 400-97.28h48c11.872 0.032 23.712 0.736 35.536 2.080 295.488 15.040 284.464 109.92 284.464 109.92v82.64h0.112zM278.56 828.8c-106.080 0-198.56 21.44-198.56 48s92.48 48 198.56 48c106.080 0 185.44-21.44 185.44-48 0-10.56-12.8-20.32-34.56-28.16-26.992-3.6-53.696-8.944-80-16-23.536-2.496-47.2-3.776-70.88-3.84zM367.2 732.8c0 35.36 123.36 64 264.64 64s247.36-28.64 247.36-64-105.92-64-247.36-64c-141.44 0-264.64 28.64-264.64 64zM943.968 242.656c-14.464-140.64-140.224-242.928-280.88-228.448-140.624 14.464-242.912 140.224-228.432 280.88 12.304 119.536 106.112 214.432 225.504 228.112h2.88c8.96 1.6 16.496 1.6 24.96 1.6s16 0 24.464-1.28h3.056c140.64-14.48 242.912-140.224 228.448-280.864z" />
<glyph unicode="&#xaa029;" glyph-name="cs-workflow" d="M1024 588.8h-127.648c-42.336 121.728-139.712 217.824-262.272 258.352l-121.344 121.344-113.856-113.856c-135.488-35.472-244.112-137.856-288.496-269.536h-110.384v-252.304h106.4c40.336-133.344 146.016-238.512 279.648-278.192 10.528-60.096 62.832-105.808 125.952-105.808 64.992 0 118.544 48.48 126.784 111.232 126.032 43.376 224.816 145.728 263.168 274h122.048v254.768zM630.944 123.872c-18.768 47.36-64.896 80.928-118.944 80.928-55.984 0-103.424-35.984-120.816-86.048-101.44 34.368-182.32 113.6-218.784 214.048h83.6v252.304h-78.8c43.040 105.92 136.080 186.304 249.696 211.76l85.856-85.856 82.432 82.432c105.904-28.384 192.32-104.912 234.16-204.64h-61.344v-254.768h68.032c-34.56-96.304-109.888-173.296-205.088-210.16z" />
<glyph unicode="&#xaa030;" glyph-name="cs-workflow-workbench" d="M1024 588.8h-127.648c-42.336 121.728-139.712 217.824-262.272 258.352l-121.344 121.344-113.856-113.856c-135.488-35.472-244.112-137.856-288.496-269.536h-110.384v-252.304h106.4c40.336-133.344 146.016-238.512 279.648-278.192 10.528-60.096 62.832-105.808 125.952-105.808 27.216 0 52.352 8.592 73.072 23.072-2.784 1.104-5.376 2.56-8.128 3.744 37.632-15.696 78.848-24.448 122.096-24.448 175.344 0 318 142.656 318 318 0 22.032-2.272 43.552-6.56 64.336l13.52 0.528v254.768zM405.552 146.928c-5.808-8.752-10.864-18.064-14.368-28.176-101.44 34.368-182.32 113.6-218.784 214.048h83.6v252.304h-78.8c43.040 105.92 136.080 186.304 249.696 211.76l85.856-85.856 82.432 82.432c105.904-28.384 192.32-104.912 234.16-204.64l-103.232-2.992c-8.944 0.768-17.92 1.376-27.056 1.376-175.344 0-318.016-142.656-318.016-318.016-0.016-43.312 8.752-84.592 24.512-122.24zM699.040 15.168c-140.064 0-254.016 113.936-254.016 254s113.952 254.016 254.016 254.016 254-113.952 254-254.016-113.936-254-254-254zM512 220.8v-64l192-65.728 191.456 64.080 0.544 65.648-192-62.272zM512 332.8v-64l184.208-66.976 199.792 66.976v64l-192-62.272zM512 396.8l192-64 192 64-192 64z" />
<glyph unicode="&#xaa031;" glyph-name="cs-loader-adaptor" d="M704 588.8c-61.024 0-117.856-17.392-166.384-47.040l-89.824 89.824 80.208 85.216h-256v-272l87.968 93.472 83.76-83.76c-37.456-52.4-59.728-116.384-59.728-185.712 0-10.752 0.576-21.376 1.616-31.84-320.656 3.2-385.616 111.84-385.616 111.84v-190.72c0 0 18.72-97.28 400-97.28 21.376 0 41.216 0.416 60.096 1.104 58.704-69.12 146.112-113.104 243.904-113.104 176.736 0 320 143.264 320 320s-143.264 320-320 320zM704 12.8c-141.376 0-256 114.624-256 256s114.624 256 256 256 256-114.624 256-256-114.624-256-256-256zM224 596.96v167.84h400v-48l-120-120 4-4c264.464 20 260 108 260 108v160c1.136 4.848 1.136 9.888 0 14.72v1.28c-6.88 30.72-67.36 96-375.2 96-335.040 0-381.28-74.24-390.88-98.88l-1.92 2.88v-190.72c0 0 8.32-65.28 224-89.12zM392.64 908.8c141.28 0 247.36-28.64 247.36-64s-105.92-64-247.36-64c-141.28 0-264.64 28.64-264.64 64s123.36 64 264.64 64zM694.72 461.76l-81.44-80.96c-50.56-50.56-34.72-104 0-162.88l-54.256-54.256 54.256-54.864 54.256 54.256c58.88-34.72 112-50.56 162.88 0l81.6 81.6-217.296 217.104zM803.36 244.48l-108.64 108.624 27.2 27.216 108.64-108.656-27.2-27.184zM223.504 344.56l0.496 52.512v127.696c-181.76 29.44-224 99.040-224 99.040v-190.72c0 0 12.496-64.624 223.504-88.528z" />
<glyph unicode="&#xaa032;" glyph-name="cs-organization" d="M712.048 972.8h-616c-42.656 1.536-78.464-31.808-80-74.464-0.064-1.84-0.064-3.696 0-5.536v-944h768v960c0 46.4-25.6 64-72 64zM336.048 908.8h128v-128h-128v128zM336.048 716.8h128v-128h-128v128zM336.048 524.8h128v-128h-128v128zM144.048 908.8h128v-128h-128v128zM144.048 716.8h128v-128h-128v128zM144.048 524.8h128v-128h-128v128zM528.048 12.8h-256v256h256v-256zM656.048 396.8h-128v128h128v-128zM656.048 588.8h-128v128h128v-128zM656.048 780.8h-128v128h128v-128z" />
<glyph unicode="&#xaa033;" glyph-name="cs-organization-profile" d="M1024 268.8c0 154.816-109.936 283.92-256 313.584v326.416c0 46.4-25.6 64-72 64h-616c-42.656 1.536-78.464-31.808-80-74.464-0.064-1.84-0.064-3.696 0-5.536v-944h768v6.416c146.064 29.664 256 158.768 256 313.584zM512 908.8h128v-128h-128v128zM512 716.8h128v-128h-128v128zM512.576 524.8c-0.192-0.144-0.384-0.288-0.576-0.432v0.432h0.576zM320 908.8h128v-128h-128v128zM320 716.8h128v-128h-128v128zM320 524.8h128v-64.576c-14.672-19.584-27.28-40.736-37.2-63.424h-90.8v128zM128 908.8h128v-128h-128v128zM128 716.8h128v-128h-128v128zM128 524.8h128v-128h-128v128zM512 12.8h-256v256h128c0-104.592 50.4-197.168 128-255.568v-0.432zM704 12.8c-141.376 0-256 114.624-256 256s114.624 256 256 256 256-114.624 256-256-114.624-256-256-256zM560 172.8h128v-64h-128v64zM560 412.8v-208c36.16 33.344 91.84 33.344 128 0 0 0 1.6 204 0 208-73.744 44.96-128 0-128 0zM720 172.8h128v-64h-128v64zM720 412.8v-208c36.224 33.184 91.776 33.184 128 0 0 0 1.6 204 0 208-73.744 44.96-128 0-128 0z" />
<glyph unicode="&#xaa034;" glyph-name="cs-application" d="M0 972.8h256v-256h-256v256zM384 972.8h256v-256h-256v256zM768 972.8h256v-256h-256v256zM0 588.8h256v-256h-256v256zM384 588.8h256v-256h-256v256zM768 588.8h256v-256h-256v256zM0 204.8h256v-256h-256v256zM384 204.8h256v-256h-256v256zM768 204.8h256v-256h-256v256z" />
<glyph unicode="&#xaa035;" glyph-name="cs-object" d="M64 972.8v-1024h640l256 256v768h-896zM832 204.8h-128v-128h-512v768h640v-640zM512 780.8h-256v-256h256v256zM448 588.8h-128v128h128v-128zM576 716.8h192v-128h-192v128zM512 460.8h-256v-256h256v256zM448 268.8h-128v128h128v-128zM576 396.8h192v-128h-192v128z" />
<glyph unicode="&#xaa036;" glyph-name="cs-assignment-objects" d="M988.256 850.432l-86.624 86.624c-47.84 47.824-125.392 47.824-173.232 0l-238.080-237.92c-47.824-47.856-47.824-125.392 0-173.248l21.712-21.712-43.312-43.312-21.632 21.632c-47.856 47.824-125.392 47.824-173.248 0l-238.080-238.080c-47.824-47.84-47.824-125.392 0-173.232l85.792-86.464c0.208-0.208 0.416-0.4 0.624-0.624 48.016-47.664 125.616-47.392 173.296 0.624l238.24 237.92c47.824 47.856 47.824 125.392 0 173.248l-21.728 21.728 43.328 43.312 21.648-21.648c47.824-47.712 125.248-47.712 173.072 0l238.256 237.92c47.792 47.84 47.792 125.376-0.032 173.232zM447.072 308.576l-238.912-237.408-86.624 86.624 238.912 238.080 21.552-21.712-43.216-43.2 43.264-43.264 43.040 43.040 21.984-22.16zM663.552 525.728l-21.728 21.728 43.312 43.312-43.248 43.264-43.328-43.328-21.632 21.632 238.080 238.080 86.624-86.624-238.080-238.064z" />
<glyph unicode="&#xaa037;" glyph-name="cs-object-privileges" horiz-adv-x="512" d="M192 572.8h128v-624h-128v624zM256 972.8c-141.385 0-256-114.615-256-256s114.615-256 256-256c141.385 0 256 114.615 256 256s-114.615 256-256 256zM256 732.8c-35.346 0-64 28.654-64 64s28.654 64 64 64c35.346 0 64-28.654 64-64s-28.654-64-64-64zM208 76.8h240v-128h-240v128zM208 268.8h240v-128h-240v128z" />
<glyph unicode="&#xaa038;" glyph-name="cs-assign-privileges" d="M480 780.8h-256v-256h256v256zM416 588.8h-128v128h128v-128zM736 716.8h-192v-128h192zM992 268.8c0 71.872-23.984 138-64 191.424v512.576h-896v-1024h672v1.616c161.696 16.048 288 152.448 288 318.384zM160 844.8h640v-282.8c-39.216 17.136-82.448 26.8-128 26.8-104.592 0-197.168-50.4-255.568-128h-192.432v-256h134.416c9.632-47.376 29.984-90.752 58.016-128h-256.432v768zM352 268.8h-64v128h90.8c-17.136-39.216-26.8-82.448-26.8-128zM672 12.8c-141.376 0-256 114.624-256 256s114.624 256 256 256 256-114.624 256-256-114.624-256-256-256zM768 396.8c-53.696 0-99.616-33.104-118.608-80h-201.392v-128h128v64h65.104c7.888-63.12 61.648-112 126.896-112 70.688 0 128 57.312 128 128s-57.312 128-128 128zM800 236.8c-17.664 0-32 14.336-32 32s14.336 32 32 32 32-14.336 32-32-14.336-32-32-32z" />
<glyph unicode="&#xaa039;" glyph-name="cs-assign-object" d="M448 780.8h-256v-256h256v256zM384 588.8h-128v128h128v-128zM704 716.8h-192v-128h192zM896 972.8h-896v-1024h672v1.616c161.696 16.048 288 152.448 288 318.384 0 71.872-23.984 138-64 191.424v512.576zM128 76.8v768h640v-282.8c-39.216 17.136-82.448 26.8-128 26.8-104.592 0-197.168-50.4-255.568-128h-192.432v-256h134.416c9.632-47.376 29.984-90.752 58.016-128h-256.432zM346.8 396.8c-17.136-39.216-26.8-82.448-26.8-128h-64v128h90.8zM640 12.8c-73.12 0-138.928 30.832-185.584 80h41.584c43.68 0 201.92 0 304 0h25.584c-46.656-49.168-112.464-80-185.584-80zM640 220.8c47.312 3.232 92.224-21.312 115.024-62.88-76.32 0-131.184 0-172.32 0l-57.424-1.12c22.464 41.904 67.264 66.896 114.72 64zM576 348.8c0 35.344 28.656 64 64 64s64-28.656 64-64-28.656-64-64-64-64 28.656-64 64zM835.584 103.808l-3.584 25.632c-9.744 59.216-46.832 107.712-96.752 134.064 20.304 22.656 32.752 52.48 32.752 85.296 0 70.688-57.312 128-128 128s-128-57.312-128-128c0-32.816 12.448-62.64 32.752-85.296-49.92-26.336-86.992-74.848-96.752-134.064v-29.584c-39.712 45.104-64 104.128-64 168.944 0 141.376 114.624 256 256 256s256-114.624 256-256c0-62.896-22.784-120.416-60.416-164.992z" />
<glyph unicode="&#xaa040;" glyph-name="cs-assign-application" d="M0 972.8h256v-256h-256v256zM384 972.8h256v-256h-256v256zM768 972.8h256v-256h-256v256zM0 588.8h256v-256h-256v256zM0 204.8h256v-256h-256v256zM768-51.2h256v640h-640v-640h384zM960 268.8c0-62.848-22.864-120.384-60.576-164.992l-3.76 25.648c-5.648 38.352-33.056 100.976-96.768 133.728 20.496 22.704 33.104 52.672 33.104 85.616 0 70.576-57.424 128-128 128s-128-57.424-128-128c0-32.944 12.608-62.912 33.104-85.616-63.696-32.768-91.12-95.376-96.768-133.728l-0.272-29.488c-39.728 45.12-64.064 104.128-64.064 168.832 0 141.152 114.848 256 256 256s256-114.848 256-256zM640 348.8c0 35.296 28.704 64 64 64s64-28.704 64-64-28.704-64-64-64-64 28.704-64 64zM704 220.8c66.688 0 99.344-34.976 114.944-63.712-75.488 0.464-131.088 0.784-172.272 0.784-23.472 0-42.256-0.112-57.344-0.336 15.696 28.688 48.368 63.264 114.672 63.264zM518.576 92.8h41.424c43.408 0.72 201.664 0.64 303.792 0l25.472-0.16c-46.656-49.056-112.368-79.84-185.264-79.84-72.976 0-138.752 30.848-185.424 80z" />
<glyph unicode="&#xaa041;" glyph-name="cs-role" d="M517.6 592.96c47.040 19.84 75.36 96 47.040 123.84l-4.64 3.68c22.256 56.16 48 161.28-64 183.84-27.36 38.4-80 68.16-176 68.48-216.8 0-225.6-190.080-224-242.56-7.92-2.736-15.056-7.344-20.8-13.44-28.64-28.64 0.8-106.080 49.12-124.64 14.496-30.912 34.192-59.12 58.24-83.36 35.632-38.56 84.992-61.552 137.44-64 79.2 0 157.92 65.28 197.6 148.16zM320.96 508.8c-35.744 2.48-69.12 18.848-92.96 45.6-39.6 38.784-63.12 91.040-65.92 146.4 0.032 9.568 0.992 19.104 2.88 28.48 89.744 17.808 176.128 49.616 256 94.24l4.32-3.84c3.328-38.16 22.768-73.072 53.44-96 1.216-7.408 1.856-14.896 1.92-22.4-0.64-91.2-83.84-192.48-159.68-192.48zM288 348.8l-96 80-192-96 98.72-256h157.28l32 192c0 0-71.68 16 0 80zM704 332.8h192v-128h-192v128zM672 268.8c0-53.019-42.981-96-96-96s-96 42.981-96 96c0 53.019 42.981 96 96 96s96-42.981 96-96zM704 588.8c-176.736 0-320-143.264-320-320s143.264-320 320-320 320 143.264 320 320-143.264 320-320 320zM704 12.8c-141.376 0-256 114.624-256 256s114.624 256 256 256 256-114.624 256-256-114.624-256-256-256z" />
<glyph unicode="&#xaa042;" glyph-name="cs-responsibilities" d="M517.6 592.96c47.040 19.84 75.36 96 47.040 123.84l-4.64 3.68c22.256 56.16 48 161.28-64 183.84-27.36 38.4-80 68.16-176 68.48-216.8 0-225.6-190.080-224-242.56-7.92-2.736-15.056-7.344-20.8-13.44-28.64-28.64 0.8-106.080 49.12-124.64 14.496-30.912 34.192-59.12 58.24-83.36 35.632-38.56 84.992-61.552 137.44-64 79.2 0 157.92 65.28 197.6 148.16zM320.96 508.8c-35.744 2.48-69.12 18.848-92.96 45.6-39.6 38.784-63.12 91.040-65.92 146.4 0.032 9.568 0.992 19.104 2.88 28.48 89.744 17.808 176.128 49.616 256 94.24l4.32-3.84c3.328-38.16 22.768-73.072 53.44-96 1.216-7.408 1.856-14.896 1.92-22.4-0.64-91.2-83.84-192.48-159.68-192.48zM288 348.8l-96 80-192-96 98.72-256h157.28l32 192c0 0-71.68 16 0 80zM720 332.8h192v-128h-192v128zM496 364.8v-192h192v192h-192zM624 236.8h-64v64h64v-64zM704 588.8c-176.736 0-320-143.264-320-320s143.264-320 320-320 320 143.264 320 320-143.264 320-320 320zM704 12.8c-141.376 0-256 114.624-256 256s114.624 256 256 256 256-114.624 256-256-114.624-256-256-256z" />
<glyph unicode="&#xaa043;" glyph-name="cs-assign-responsibilities-to-roles" d="M517.84 592.992c46.912 20.064 75.008 95.616 46.8 123.808-1.232 1.424-2.576 2.72-3.968 3.968 22.256 56.176 46.88 160.576-63.824 183.424-27.28 38.672-79.456 68.608-175.888 68.608-218.128 0-226.56-190.72-224.8-242.848-5.824-1.648-11.424-4.448-16.32-8.672-1.6-1.376-3.104-2.88-4.48-4.48-28.512-28.512 0.528-105.328 48.368-124.352 14.128-30.88 33.632-59.328 58.192-83.648 35.776-38.704 85.408-61.712 138.080-64h1.12c78.416 0 157.2 65.152 196.72 148.192zM320 508.8c-35.344 2.768-68.272 19.104-91.84 45.6-39.472 38.832-62.896 91.088-65.6 146.4 0 9.856 1.152 19.392 3.008 28.672 116.688 24.96 200.752 62.912 254.688 94.144 1.392-1.152 2.672-2.464 4.016-3.664 2.064-30.288 15.664-64.368 53.632-95.664 1.168-7.36 1.984-14.8 2.080-22.352 0.016-91.856-83.184-193.136-159.984-193.136zM288 348.8l-96 80-192-96 98.72-256h157.28l32 192c0 0-71.68 16 0 80zM704 588.8c-130.528 0-242.608-78.256-292.384-190.336l-59.616-49.664c71.68-64 0-80 0-80l32-192h64.432c58.384-77.6 150.976-128 255.568-128 176.736 0 320 143.264 320 320s-143.264 320-320 320zM704 12.8c-141.376 0-256 114.624-256 256s114.624 256 256 256 256-114.624 256-256-114.624-256-256-256zM864 364.8h-160v-192h192v192h-32zM832 236.8h-64v64h64v-64zM672 268.8c0-53.019-42.981-96-96-96s-96 42.981-96 96c0 53.019 42.981 96 96 96s96-42.981 96-96z" />
<glyph unicode="&#xaa044;" glyph-name="cs-menu" d="M438.864 899.664h585.136v-146.288h-585.136v146.288zM292.576 826.512c0-80.793-65.495-146.288-146.288-146.288s-146.288 65.495-146.288 146.288c0 80.793 65.495 146.288 146.288 146.288s146.288-65.495 146.288-146.288zM438.864 533.936h585.136v-146.288h-585.136v146.288zM292.576 460.8c0-80.793-65.495-146.288-146.288-146.288s-146.288 65.495-146.288 146.288c0 80.793 65.495 146.288 146.288 146.288s146.288-65.495 146.288-146.288zM438.864 168.24h585.136v-146.304h-585.136v146.304zM292.576 95.088c0-80.793-65.495-146.288-146.288-146.288s-146.288 65.495-146.288 146.288c0 80.793 65.495 146.288 146.288 146.288s146.288-65.495 146.288-146.288z" />
<glyph unicode="&#xaa045;" glyph-name="cs-menu-group" d="M448 716.8h320v-64h-320v64zM384 684.8c0-35.346-28.654-64-64-64s-64 28.654-64 64c0 35.346 28.654 64 64 64s64-28.654 64-64zM448 492.8h320v-64h-320v64zM384 460.8c0-35.346-28.654-64-64-64s-64 28.654-64 64c0 35.346 28.654 64 64 64s64-28.654 64-64zM448 268.8h320v-64h-320v64zM384 236.8c0-35.346-28.654-64-64-64s-64 28.654-64 64c0 35.346 28.654 64 64 64s64-28.654 64-64zM0 972.8v-1024h1024v1024h-1024zM896 76.8h-768v768h768v-768z" />
<glyph unicode="&#xaa046;" glyph-name="cs-assign-menu-to-menu-groups" d="M448 716.8h320v-64h-320v64zM384 684.8c0-35.346-28.654-64-64-64s-64 28.654-64 64c0 35.346 28.654 64 64 64s64-28.654 64-64zM384 460.8c0-35.346-28.654-64-64-64s-64 28.654-64 64c0 35.346 28.654 64 64 64s64-28.654 64-64zM384 236.8c0-35.346-28.654-64-64-64s-64 28.654-64 64c0 35.346 28.654 64 64 64s64-28.654 64-64zM0 972.8v-1024h1024v1024h-1024zM128 844.8h768v-320.432c-53.52 40.272-119.856 64.432-192 64.432-176.736 0-320-143.264-320-320 0-72.144 24.16-138.48 64.432-192h-320.432v768zM448 268.8c0 141.376 114.624 256 256 256s256-114.624 256-256-114.624-256-256-256-256 114.624-256 256zM887.36 343.056l-46.72 43.488-201.44-215.664-72.64 72.48-45.12-45.12 119.36-119.52z" />
<glyph unicode="&#xaa047;" glyph-name="cs-assign-menu-groups-to-user" d="M448 716.8h320v-64h-320v64zM384 684.8c0-35.346-28.654-64-64-64s-64 28.654-64 64c0 35.346 28.654 64 64 64s64-28.654 64-64zM384 460.8c0-35.346-28.654-64-64-64s-64 28.654-64 64c0 35.346 28.654 64 64 64s64-28.654 64-64zM384 236.8c0-35.346-28.654-64-64-64s-64 28.654-64 64c0 35.346 28.654 64 64 64s64-28.654 64-64zM0 972.8v-1024h1024v1024h-1024zM128 844.8h768v-320.432c-53.52 40.272-119.856 64.432-192 64.432-176.736 0-320-143.264-320-320 0-72.144 24.16-138.48 64.432-192h-320.432v768zM704 284.8c-35.344 0-64 28.656-64 64s28.656 64 64 64 64-28.656 64-64-28.656-64-64-64zM704 220.8c47.312 3.232 92.224-21.312 115.024-62.88-76.32 0-131.184 0-172.32 0l-57.424-1.12c22.464 41.904 67.264 66.896 114.72 64zM864 92.8h25.584c-46.656-49.168-112.464-80-185.584-80s-138.928 30.832-185.584 80h41.584c43.68 0 201.92 0 304 0zM899.584 103.808l-3.584 25.632c-9.744 59.216-46.832 107.712-96.752 134.064 20.304 22.656 32.752 52.48 32.752 85.296 0 70.688-57.312 128-128 128s-128-57.312-128-128c0-32.816 12.448-62.64 32.752-85.296-49.92-26.336-87.008-74.848-96.752-134.064v-29.584c-39.712 45.104-64 104.128-64 168.944 0 141.376 114.624 256 256 256s256-114.624 256-256c0-62.896-22.784-120.416-60.416-164.992z" />
<glyph unicode="&#xaa048;" glyph-name="cs-assign-menu-groups-to-role" d="M448 716.8h320v-64h-320v64zM384 684.8c0-35.346-28.654-64-64-64s-64 28.654-64 64c0 35.346 28.654 64 64 64s64-28.654 64-64zM384 460.8c0-35.346-28.654-64-64-64s-64 28.654-64 64c0 35.346 28.654 64 64 64s64-28.654 64-64zM384 236.8c0-35.346-28.654-64-64-64s-64 28.654-64 64c0 35.346 28.654 64 64 64s64-28.654 64-64zM0 972.8v-1024h1024v1024h-1024zM128 844.8h768v-320.432c-53.52 40.272-119.856 64.432-192 64.432-176.736 0-320-143.264-320-320 0-72.144 24.16-138.48 64.432-192h-320.432v768zM942.080 276.96l-46.88 43.68-18.528-19.84h-204.672v-64h144.896l-123.136-131.84-72.464 72.48-45.296-45.28 118.912-118.912c-137.136 4.848-246.912 117.248-246.912 255.552 0 141.376 114.624 256 256 256s256-114.624 256-256-114.624-256-256-256c-2.784 0-5.488 0.336-8.256 0.416l246.336 263.744zM640 268.8c0-35.346-28.654-64-64-64s-64 28.654-64 64c0 35.346 28.654 64 64 64s64-28.654 64-64z" />
<glyph unicode="&#xaa049;" glyph-name="cs-record-sharing" d="M832.928 333.424c-47.904 0-91.6-17.76-125.136-46.912l-326.832 153.312c0.752 6.896 1.2 13.872 1.2 20.976 0 12.32-1.28 24.336-3.504 36l317.648 149.008c34.704-35.52 83.056-57.632 136.624-57.632 105.52 0 191.072 85.552 191.072 191.088 0 105.52-85.552 191.072-191.072 191.072s-191.072-85.552-191.072-191.072c0-6.032 0.352-11.984 0.912-17.872l-328.896-154.272c-33.216 27.904-76.016 44.752-122.784 44.752-105.536 0-191.088-85.536-191.088-191.072s85.552-191.072 191.072-191.072c52.448 0 99.952 21.168 134.464 55.392l319.328-149.776c-1.856-10.736-3.024-21.712-3.024-32.992 0-105.536 85.568-191.072 191.072-191.072 105.536-0.016 191.088 85.536 191.088 191.072 0 105.504-85.552 191.072-191.072 191.072z" />
<glyph unicode="&#xaa050;" glyph-name="cs-exit" d="M640 76.8h-512v768h512v-128h128v254.080l-768 1.92v-1024h768v256h-128zM1024 462.56l-254.56 222.24-0.512-160h-384.928v-128h384.512l-0.512-160z" />
<glyph unicode="&#xaa051;" glyph-name="cs-object-sharing" d="M448 780.8h-256v-256h256v256zM384 588.8h-128v128h128v-128zM704 716.8h-192v-128h192v128zM960 268.8c-0.025 72.136-24.071 138.652-64.573 191.987l0.573 512.013h-896v-1024h672v1.6c162.421 16.804 288 152.935 288 318.396 0 0.001 0 0.003 0 0.004zM128 844.8h640v-282.88c-37.835 17.119-82.033 27.094-128.561 27.094-104.208 0-196.729-50.036-254.849-127.394l-192.59-0.82v-256h134.4c10.156-48.92 30.253-91.986 58.175-128.79l-256.575 0.79v768zM320 268.8h-64v128h90.88c-16.984-37.661-26.88-81.645-26.88-127.941 0-0.021 0-0.042 0-0.062zM640 12.8c-141.385 0-256 114.615-256 256s114.615 256 256 256c141.385 0 256-114.615 256-256s-114.615-256-256-256zM720 316.8c35.163 0.241 63.575 28.802 63.575 63.999 0 35.346-28.654 64-64 64-32.752 0-59.758-24.602-63.546-56.335l-118.27-61.584c-7.909 3.765-17.186 5.964-26.978 5.964-35.346 0-64-28.654-64-64s28.654-64 64-64c10.985 0 21.324 2.768 30.357 7.644l114.86-53.288c0-0.8 0-1.6 0-2.4 0-35.346 28.654-64 64-64s64 28.654 64 64c0 35.346-28.654 64-64 64-10.543-0.119-20.44-2.768-29.149-7.368l-114.851 53.608s0 1.76 0 1.76 0 3.36 0 5.12l106.88 55.36c10.257-7.632 23.127-12.287 37.074-12.48z" />
<glyph unicode="&#xaa052;" glyph-name="cs-assign-responsibilities-to-user" d="M704 588.8c-176.736 0-320-143.264-320-320s143.264-320 320-320 320 143.264 320 320-143.264 320-320 320zM704 12.8c-70.192 0.016-137.264 28.96-185.44 80h41.44c43.36 0 201.6 0 304 0h25.44c-48.176-51.040-115.248-79.984-185.44-80zM704 220.8c47.52 2.976 92.384-22.048 114.88-64-75.52 0-131.024 0-172.32 0h-57.28c22.464 41.904 67.264 66.896 114.72 64zM640 348.8c0 35.344 28.656 64 64 64s64-28.656 64-64-28.656-64-64-64-64 28.656-64 64zM899.36 103.824l-3.36 25.616c-9.6 57.024-45.024 106.416-96 133.76 47.456 52.384 43.44 133.344-8.976 180.784-52.4 47.456-133.344 43.44-180.784-8.96-44.176-48.768-44.176-123.072 0-171.824-50.976-27.344-86.4-76.736-96-133.76v-29.44c-94.224 105.424-85.136 267.248 20.288 361.472 105.408 94.208 267.248 85.136 361.472-20.304 85.536-95.68 86.976-239.936 3.36-337.344zM512 844.8h400v-128h-400v128zM384 588.8v384h-384v-384h384zM128 844.8h128v-128h-128v128zM352 460.8h-352v-384h384v384h-32zM256 204.8h-128v128h128v-128z" />
<glyph unicode="&#xaa053;" glyph-name="cs-reprocess" d="M517.328 967.472c-157.312 0-298.16-71.376-392.128-183.392l-77.2 76.72c0 5.328 0-272 0-272h256l-87.856 104.336c70.384 89.008 179.168 146.336 301.184 146.336 211.728 0 384-172.272 384-384s-172.272-384-384-384c-141.376 0-265.072 76.864-331.728 190.944l-92.832-92.832c92.096-136.32 242.704-220.784 419.232-220.784 282.32 0 512 224.688 512 507.008s-224.336 511.664-506.672 511.664zM736 428.8v64h-67.216c-4.16 20.384-12.256 39.36-23.392 56.144l47.632 47.632-45.248 45.248-47.632-47.616c-16.784 11.12-35.744 19.216-56.144 23.376v67.216h-64v-67.232c-20.384-4.16-39.36-12.256-56.144-23.376l-47.632 47.616-45.248-45.248 47.616-47.632c-11.12-16.784-19.216-35.744-23.376-56.144h-67.216v-64h67.232c4.16-20.384 12.256-39.36 23.376-56.144l-47.616-47.632 45.248-45.248 47.632 47.632c16.784-11.136 35.744-19.232 56.144-23.392v-67.2h64v67.216c20.384 4.16 39.36 12.256 56.144 23.392l47.632-47.632 45.248 45.248-47.632 47.632c11.136 16.784 19.232 35.744 23.392 56.144h67.2zM512 364.8c-52.944 0-96 43.056-96 96s43.056 96 96 96 96-43.056 96-96-43.056-96-96-96z" />
<glyph unicode="&#xaa054;" glyph-name="cs-email-template" d="M512 428.8h384v-128h-384v128zM512 236.8h128v-128h-128v128zM704 236.8h192v-128h-192v128zM992 411.664v278.16l-480.288 276.192-511.712-274.944v-613.76l448-0.512c58.736-70.816 161.008-132 260-132 176.448 0 320 143.552 320 320 0 52.96-13.136 102.832-36 146.864zM509.616 819.584l262.176-150.784h-542.8l280.624 150.784zM403.088 267.872l-250.496-119.808-27.616 57.744 289.728 138.56c-6.928-24.416-10.896-50.016-11.616-76.496zM421.264 364.496l-298.224 168.592 31.488 55.712 294.592-166.496c-11.184-18.128-20.528-37.456-27.856-57.808zM708 8.8c-141.152 0-256 114.848-256 256s114.848 256 256 256 256-114.848 256-256-114.848-256-256-256z" />
<glyph unicode="&#xaa055;" glyph-name="cs-assign-users-to-user-group" d="M517.664 592.896c47.056 19.888 75.328 95.616 47.040 123.904-1.408 1.392-2.784 2.512-4.176 3.696 22.288 56.24 47.232 161.296-63.968 183.856-27.376 38.448-79.52 68.192-175.568 68.448-217.856 0.576-226.56-190.016-224.816-242.592-6.64-2.112-13.664-6.192-20.88-13.408-28.704-28.704 0.864-106.144 49.152-124.64 14.4-30.368 34.016-59.056 58.096-83.072 41.616-41.472 90.64-64.288 138.128-64.288 0.16 0 0.304 0 0.464 0 78.016 0.24 156.864 65.216 196.528 148.096zM320.944 508.8c-0.080 0-0.176 0-0.256 0-30.432 0-63.424 16.192-92.944 45.616-39.888 39.76-65.664 97.232-65.664 146.384 0 9.824 1.136 19.328 2.96 28.56 116.992 24.976 201.216 62.992 255.232 94.288 1.488-1.232 2.864-2.624 4.304-3.92 2.16-30.224 15.776-64.208 53.504-95.408 1.136-7.376 1.92-14.816 1.92-22.336 0-91.856-83.248-192.944-159.056-193.184zM288 348.8l-96 80-192-96 98.672-256h157.328l32 192c0 0-71.76 16.72 0 80zM704-51.2c-176.448 0-320 143.552-320 320s143.552 320 320 320c176.448 0 320-143.552 320-320s-143.552-320-320-320zM704 524.8c-141.152 0-256-114.848-256-256s114.848-256 256-256 256 114.848 256 256-114.848 256-256 256zM855.424 264.24c-4.432 59.248-42.928 109.040-95.968 129.936-2.768 32.784-29.952 58.624-63.456 58.624-35.344 0-64-28.656-64-64 0-0.72 0.192-1.376 0.208-2.080-44.512-23.968-75.664-69.488-79.632-122.48-23.728-9.36-40.576-32.384-40.576-59.44 0-35.344 28.656-64 64-64 7.504 0 14.608 1.536 21.296 3.904 27.472-27.104 65.152-43.904 106.704-43.904s79.232 16.8 106.704 43.904c6.688-2.368 13.792-3.904 21.296-3.904 35.344 0 64 28.656 64 64 0 27.056-16.848 50.080-40.576 59.44zM633.28 176.768c4.176 8.496 6.72 17.92 6.72 28.032 0 26.624-16.272 49.424-39.392 59.056 3.584 33.664 23.312 62.496 51.232 78.768 11.504-10.992 27.008-17.824 44.16-17.824 19.872 0 37.424 9.248 49.152 23.472 33.68-14.576 58.208-46.464 62.24-84.4-23.12-9.648-39.392-32.448-39.392-59.072 0-10.112 2.544-19.536 6.72-28.032-18.576-17.296-43.392-27.968-70.72-27.968s-52.144 10.672-70.72 27.968z" />
<glyph unicode="&#xaa056;" glyph-name="cs-transfer-ownership" d="M128 460.8v128h128v-128h128v128h136.384c28.464-110.352 128.368-192 247.616-192 141.376 0 256 114.608 256 256 0 141.376-114.624 256-256 256-119.248 0-219.152-81.664-247.616-192h-520.384v-256h128zM848 716.8c35.344 0 64-28.656 64-64s-28.656-64-64-64-64 28.656-64 64 28.656 64 64 64zM896 332.8l-160-160h-272v32h96c35.344 0 64 28.656 64 64s-28.656 64-64 64h-368l-192-190 155.008-194 100.992 80h528l209.472 220.432c21.856 21.872 19.328 59.872-5.664 84.864s-69.936 20.56-91.808-1.296z" />
<glyph unicode="&#xaa057;" glyph-name="cs-publisher" d="M512 780.8h-256v-256h256v256zM448 588.8h-128v128h128v-128zM768 716.8h-192v-128h192zM1024 268.8c0 71.712-24 137.76-64 191.184v512.816h-896v-1024h672v1.632c161.488 16.096 288 152.704 288 318.368zM192 844.8h640v-282.912c-39.232 17.216-82.48 26.912-128 26.912-104.352 0-196.944-50.448-255.392-128h-192.608v-256h134.448c9.648-47.36 30.064-90.72 58.16-128h-256.608v768zM384 268.8h-64v128h90.912c-17.216-39.232-26.912-82.48-26.912-128zM704 12.8c-141.152 0-256 114.848-256 256s114.848 256 256 256 256-114.848 256-256-114.848-256-256-256zM928 236.8v64h-67.216c-4.16 20.384-12.256 39.36-23.392 56.144l47.632 47.632-45.248 45.248-47.632-47.632c-16.784 11.136-35.744 19.232-56.144 23.392v67.216h-64v-67.216c-20.384-4.16-39.36-12.256-56.144-23.392l-47.632 47.632-45.248-45.248 47.632-47.632c-11.136-16.784-19.232-35.744-23.392-56.144h-67.216v-64h67.216c4.16-20.384 12.256-39.36 23.392-56.144l-47.632-47.632 45.248-45.248 47.632 47.632c16.784-11.136 35.744-19.232 56.144-23.392v-67.216h64v67.216c20.384 4.16 39.36 12.256 56.144 23.392l47.632-47.632 45.248 45.248-47.632 47.632c11.136 16.784 19.232 35.744 23.392 56.144h67.216zM704 172.8c-52.944 0-96 43.056-96 96s43.056 96 96 96 96-43.056 96-96-43.056-96-96-96z" />
<glyph unicode="&#xaa058;" glyph-name="cs-scheduled-job-list" d="M128 620.8h128v-128h-128v128zM320 620.8h128v-128h-128v128zM128 460.8h128v-128h-128v128zM160 972.8h64v-128h-64v128zM544 972.8h64v-128h-64v128zM768 582.352v294.448h-128v-64h-128v64h-256v-64h-128v64h-128v-672h390.448c29.744-145.888 159.024-256 313.552-256 176.448 0 320 143.552 320 320 0 154.528-110.112 283.808-256 313.552zM384 332.8c0-16 0-42.096 0-64h-320v416h640v-96c-21.904 0-43.312-2.24-64-6.448v38.448h-128v-96.608c-24.272-18.288-45.792-39.888-64-64.208v0.816h-128v-128h64zM704 12.8c-141.392 0-256 114.608-256 256s114.608 256 256 256 256-114.608 256-256-114.608-256-256-256zM560 396.8h288v-64h-288v64zM560 300.8h288v-64h-288v64zM560 204.8h288v-64h-288v64z" />
<glyph unicode="&#xaa059;" glyph-name="cs-mobile" d="M768 972.8h-512c-35.344 0-64-28.656-64-64v-896c0-35.344 28.656-64 64-64h512c35.344 0 64 28.656 64 64v896c0 35.344-28.656 64-64 64zM400 908.8h224v-32h-224v32zM513.136-19.2c-17.664 0-32 14.32-32 32s14.336 32 32 32 32-14.32 32-32-14.32-32-32-32zM768 76.8h-512v736h512v-736zM704 140.8h-383.328l-0.672 606.176h383.328z" />
<glyph unicode="&#xaa060;" glyph-name="cs-mobile-device" d="M704.592 586.4c-22.16 0-43.728-2.464-64.592-6.976v329.376c0 35.344-27.696 64-63.104 64h-512.8c-35.392 0-64.096-28.656-64.096-64v-896c0-35.344 28.704-64 64.096-64h512.8c14.352 0 27.52 4.8 38.144 12.784 28.528-8.896 58.752-13.776 90.064-13.776 172.048 0 317.408 146.544 317.408 320-0.016 172.688-145.584 318.592-317.92 318.592zM208 908.8h240v-32h-240v32zM321.632-19.2c-17.696 0-32.048 14.32-32.048 32s14.352 32 32.048 32c17.696 0 32.048-14.32 32.048-32s-14.352-32-32.048-32zM64 76.8v736h512v-255.12c-22.816-10.624-44.16-23.92-63.632-39.6l-0.256 230.72h-383.92l0.672-608h290.528c9.712-22.896 22.096-44.256 36.48-64h-391.872zM705.088 11.808c-137.216 0-248.848 115.296-248.848 256.992 0 139.824 111.408 253.6 248.336 253.6 138.224 0 255.008-116.592 255.008-254.592 0.032-138.768-116.544-256-254.496-256zM811.984 440.784h-64v-64h-64v64h-64v-64h-64v-120c0-74.528 59.024-102.224 128-120v-80h64v80c68.976 17.776 128 45.472 128 120v120h-64v64zM795.984 248.784h-160v64h160v-64z" />
<glyph unicode="&#xaa061;" glyph-name="cs-transaction-search" d="M998.096 72.832l-287.776 287.776c42.672 61.232 67.776 135.568 67.776 215.68 0 208.576-169.68 378.272-378.272 378.272s-378.272-169.68-378.272-378.256 169.696-378.272 378.272-378.272c84.464 0 162.544 27.84 225.568 74.816l286.352-286.352c11.92-11.92 27.552-17.888 43.168-17.888s31.248 5.968 43.168 17.888c23.856 23.84 23.856 62.496 0.016 86.336zM399.824 326.032c-138 0-250.272 112.272-250.272 250.272s112.272 250.272 250.272 250.272 250.272-112.272 250.272-250.272-112.272-250.272-250.272-250.272zM424 709.296l-192-0.992 0.256-63.504h192l0.080-64.672 112.416 96.416-112.752 95.76zM344 517.056l192.080-0.224-0.080-64.528-191.744 0.24-0.256-64.24-112.256 96.496 112.256 96.496z" />
<glyph unicode="&#xaa062;" glyph-name="cs-user-session-control-panel" d="M688 620.8c-57.552 0-111.744-14.592-159.136-40.192h-165.152c-13.44 25.344-39.792 42.848-70.416 42.848s-56.992-17.504-70.416-42.848h-150.88v-64h146.272c11.088-30.88 40.368-53.152 75.024-53.152s63.936 22.272 75.024 53.152h77.056c-49.072-51.344-82.048-118.048-90.816-192.192h-81.856c-12.608 27.664-40.368 47.024-72.688 47.024s-60.080-19.376-72.688-47.024h-55.328v-64h54.288c12.144-28.736 40.624-48.976 73.728-48.976s61.584 20.24 73.728 48.976h79.504c12.56-173.888 157.712-311.616 334.752-311.616 185.264 0 336 150.736 336 336 0 185.28-150.736 336-336 336zM688 12.8c-149.984 0-272 122.016-272 272s122.016 272 272 272 272-122.016 272-272-122.016-272-272-272zM431.936 731.472c30.016 0 55.92 16.816 69.6 41.328h408.464v64h-402.56c-10.672 31.664-40.304 54.672-75.504 54.672s-64.832-23.008-75.504-54.672h-284.432v-64h290.336c13.68-24.528 39.584-41.328 69.6-41.328zM738.448 328.032c20.784 16.224 34.208 41.456 34.208 69.856 0 48.992-39.712 88.672-88.672 88.672-48.992 0-88.672-39.68-88.672-88.672 0-29.088 14.080-54.848 35.728-71.008-79.664-26.048-137.728-105.696-137.728-193.152h388.688c0 88.928-61.376 169.68-143.552 194.304z" />
<glyph unicode="&#xaa063;" glyph-name="cs-portation" d="M944.096 228.784l-596.912 1.12c-9.232 54.832-35.184 206.752-108.032 633.44-1.616 9.44-7.376 17.664-15.696 22.416-8.336 4.736-18.336 5.504-27.28 2.080l-170.288-65.168c-16.512-6.32-24.768-24.816-18.448-41.328s24.848-24.8 41.328-18.448l133.856 51.232c23.632-138.4 103.12-603.888 106.016-620.992 2.32-15.376 15.568-27.152 31.584-27.184l623.744-1.168c0.016 0 0.048 0 0.064 0 17.648 0 31.968 14.288 32 31.936 0.032 17.68-14.272 32.032-31.936 32.064zM383.264 159.024c-57.232 0-103.792-46.56-103.792-103.792s46.56-103.792 103.792-103.792 103.792 46.56 103.792 103.792-46.56 103.792-103.792 103.792zM383.264 15.424c-21.952 0-39.792 17.856-39.792 39.792s17.856 39.792 39.792 39.792 39.792-17.856 39.792-39.792-17.856-39.792-39.792-39.792zM870.928 159.264c-57.232 0-103.792-46.56-103.792-103.792 0-0.672 0.096-1.328 0.096-2s-0.096-1.328-0.096-2c0-57.232 46.56-103.792 103.792-103.792s103.792 46.56 103.792 103.792c0 0.672-0.096 1.328-0.096 2s0.096 1.328 0.096 2c0 57.232-46.56 103.792-103.792 103.792zM870.928 15.68c-21.248 0-38.528 16.8-39.6 37.792 1.056 20.992 18.336 37.792 39.6 37.792s38.528-16.8 39.6-37.792c-1.072-21.008-18.352-37.792-39.6-37.792zM699.984 962.672c-179.168 0.512-324.496-44.432-324.672-100.384l-0.24-81.088c-0.16-56.016 144.928-101.792 324.064-102.336 179.072-0.512 324.448 44.432 324.624 100.416l0.24 81.072c0.16 56-144.96 101.776-324.016 102.32zM703.888 794.768c-153.232 0.464-277.376 28.128-277.264 61.792 0.096 33.664 124.4 60.592 277.632 60.144 153.216-0.432 277.36-28.112 277.264-61.776-0.064-33.664-124.384-60.592-277.632-60.16zM698.976 618.064c-179.152 0.528-324.224 46.336-324.048 102.32l-0.368-121.664c-0.16-55.952 144.928-101.776 324.016-102.272 179.152-0.544 324.464 44.4 324.656 100.368l0.384 121.632c-0.192-55.968-145.552-100.896-324.64-100.384zM698.4 419.424c-179.104 0.544-324.224 46.32-324.032 102.304l-0.352-121.664c-0.176-55.92 144.912-101.744 324.032-102.256 179.136-0.528 324.448 44.416 324.608 100.352l0.368 121.632c-0.096-55.952-145.488-100.944-324.624-100.368z" />
<glyph unicode="&#xaa064;" glyph-name="cs-sprint" d="M1022.672 461.456c0 64.576-49.888 117.664-113.776 124.032-41.6 132.096-147.456 235.872-280.736 274.688-5.12 61.2-56.304 109.296-118.832 109.296-63.024 0-114.512-48.912-118.896-110.832-130.752-40.032-234.288-142.848-275.328-273.152-63.904-6.352-113.776-59.456-113.776-124.032 0-64.4 49.648-117.392 113.328-123.952 40.272-129.504 142.256-232.048 271.392-273.152 6.672-62.688 60.496-111.552 125.952-111.552s119.296 48.864 125.968 111.552c129.12 41.104 231.104 143.664 271.376 273.152 63.68 6.56 113.328 59.552 113.328 123.952zM627.552 128.384c-19.792 43.44-64.048 73.744-115.552 73.744s-95.744-30.32-115.536-73.744c-101.968 35.552-182.672 116.704-217.6 218.96 44.608 19.296 75.808 63.088 75.808 114.128 0 50.88-31.008 94.576-75.408 113.952 35.92 104 119.232 186.016 224.032 220.144 19.824-38.416 59.824-64.736 106.032-64.736 46.832 0 87.232 27.024 106.768 66.288 106.992-33.184 192.208-116.16 228.656-221.68-44.4-19.376-75.408-63.056-75.408-113.952 0-51.024 31.184-94.832 75.776-114.112-34.912-102.288-115.6-183.456-217.568-218.992zM661.856 573.392l28.832 28.832-45.248 45.248-30.896-30.896c-21.040 13.424-44.928 22.672-70.544 26.736v57.488h-64v-58.32c-28.832-5.456-55.232-17.616-77.744-34.704l-39.68 39.68-45.248-45.248 41.248-41.248c-13.28-20.336-22.624-43.408-27.12-68.176h-59.456v-64h59.024c4.192-25.12 13.344-48.528 26.544-69.216l-40.224-40.224 45.248-45.248 38.16 38.16c22.832-17.712 49.792-30.272 79.264-35.84v-39.616h64v38.816c26.288 4.176 50.768 13.744 72.192 27.728l29.232-29.232 45.248 45.248-27.664 27.664c17.888 23.552 30.272 51.392 35.312 81.76h37.664v64h-38.096c-5.44 30-18.064 57.44-36.048 80.608zM392.288 459.456c0 67.488 54.912 122.384 122.384 122.384s122.384-54.912 122.384-122.384-54.912-122.384-122.384-122.384-122.384 54.896-122.384 122.384zM609.2 459.456c0 52.112-42.4 94.528-94.528 94.528-52.112 0-94.528-42.4-94.528-94.528s42.4-94.528 94.528-94.528c52.128 0 94.528 42.4 94.528 94.528zM484.144 459.456c0 16.832 13.696 30.528 30.528 30.528s30.528-13.696 30.528-30.528-13.696-30.528-30.528-30.528-30.528 13.696-30.528 30.528z" />
<glyph unicode="&#xaa065;" glyph-name="cs-chart-creation" d="M0 972.8h128v-1024h-128v1024zM192 588.8h128v-640h-128v640zM963.392 493.728l-289.952-191.424-39.44 341.248c-119.056-14.352-227.552-89.712-278.576-207.712-76.416-176.688 4.88-381.888 181.584-458.32 176.688-76.4 381.872 4.88 458.288 181.6 49.184 113.728 32.96 239.216-31.904 334.608zM1001.872 581.024c-35.92 52.816-86.672 96.448-149.664 123.68-58.688 25.376-120.512 33.28-179.728 26.128l39.456-341.264 289.936 191.456z" />
<glyph unicode="&#xaa066;" glyph-name="cs-datalake-creation" d="M768 582.352v38.448c0 0-4.848-15.136-27.328-34.272-12.048 1.392-24.256 2.272-36.672 2.272-78.912 0-151.104-28.848-206.96-76.368-29.136-2.32-61.328-3.632-97.040-3.632-333.328 0-400 112-400 112v-190.672c0 0 18.56-95.616 390.464-97.248-4.224-20.72-6.464-42.144-6.464-64.080 0-10.752 0.576-21.36 1.616-31.84-320.704 3.2-385.616 111.84-385.616 111.84v-190.672c0 0 18.672-97.328 400-97.328 21.408 0 41.376 0.4 60.336 1.072 58.736-69.056 146.096-113.072 243.664-113.072 176.448 0 320 143.552 320 320 0 154.528-110.112 283.808-256 313.552zM704 12.8c-141.152 0-256 114.848-256 256s114.848 256 256 256 256-114.848 256-256-114.848-256-256-256zM392.672 588.8c381.328 0 375.328 112 375.328 112v160c0 0 1.808 5.776 0 14.672v1.328c0 0-0.080-0.208-0.192-0.512-6.848 30.704-67.424 96.512-375.136 96.512-334.896 0-381.216-74.224-390.704-98.816-1.36 1.808-1.968 2.816-1.968 2.816v-190.672c0 0 11.328-97.328 392.672-97.328zM392.672 908.8c141.376 0 247.328-28.656 247.328-64s-105.952-64-247.328-64-264.672 28.656-264.672 64 123.28 64 264.672 64zM512 252.8h128v-128h-128v128zM768 252.8h128v-128h-128v128zM640 444.8h128v-128h-128v128z" />
<glyph unicode="&#xaa067;" glyph-name="cs-datalist-creation" d="M768 582.352v38.448c0 0-4.848-15.136-27.328-34.272-12.048 1.392-24.256 2.272-36.672 2.272-78.912 0-151.104-28.848-206.96-76.368-29.136-2.32-61.328-3.632-97.040-3.632-333.328 0-400 112-400 112v-190.672c0 0 18.56-95.616 390.464-97.248-4.224-20.72-6.464-42.144-6.464-64.080 0-10.752 0.576-21.36 1.616-31.84-320.704 3.2-385.616 111.84-385.616 111.84v-190.672c0 0 18.672-97.328 400-97.328 21.408 0 41.376 0.4 60.336 1.072 58.736-69.056 146.096-113.072 243.664-113.072 176.448 0 320 143.552 320 320 0 154.528-110.112 283.808-256 313.552zM704 12.8c-141.152 0-256 114.848-256 256s114.848 256 256 256 256-114.848 256-256-114.848-256-256-256zM392.672 588.8c381.328 0 375.328 112 375.328 112v160c0 0 1.808 5.776 0 14.672v1.328c0 0-0.080-0.208-0.192-0.512-6.848 30.704-67.424 96.512-375.136 96.512-334.896 0-381.216-74.224-390.704-98.816-1.36 1.808-1.968 2.816-1.968 2.816v-190.672c0 0 11.328-97.328 392.672-97.328zM392.672 908.8c141.376 0 247.328-28.656 247.328-64s-105.952-64-247.328-64-264.672 28.656-264.672 64 123.28 64 264.672 64zM544 396.8h320v-64h-320v64zM544 300.8h320v-64h-320v64zM544 204.8h320v-64h-320v64z" />
<glyph unicode="&#xaa068;" glyph-name="cs-dashboard" d="M512 588.8h128v-128h-128v128zM704 716.8h128v-256h-128v256zM896 844.8h128v-384h-128v384zM448 396.8h384v-128h-384v128zM448 204.8h384v-128h-384v128zM256 396.8h128v-128h-128v128zM256 204.8h128v-128h-128v128zM960 12.8h-896v448h-64v-512h1024v448h-64v-384zM512 972.8h512v-64h-512v64zM256 460.8c141.385 0 256 114.615 256 256v0c0 140.96-128 256-256 256v-256h-256c0-128 115.36-256 256-256zM128 972.8s-128 16.96-128-128h128z" />
<glyph unicode="&#xaa069;" glyph-name="cs-assign-dashboard" d="M512 588.8h128v-128h-128v128zM704 716.8h128v-256h-128v256zM896 844.8h128v-384h-128v384zM320 396.8h320v-128h-320v128zM448 12.8h-384v448h-64v-512h448v64zM320 204.8h256v-128h-256v128zM128 396.8h128v-128h-128v128zM128 204.8h128v-128h-128v128zM512 972.8h512v-64h-512v64zM256 460.8c141.385 0 256 114.615 256 256v0c0 140.96-128 256-256 256v-256h-256c0-128 115.36-256 256-256zM128 972.8s-128 16.96-128-128h128zM665.28 134.4l-89.28-185.6 193.28 61.92c-27.2 37.92-84.96 98.56-93.28 110.080zM984.64 355.84c-36.48 38.080-82.4 52-102.24 32-5.986-8.134-9.579-18.35-9.579-29.405 0-7.743 1.763-15.074 4.909-21.614l-0.13 0.299-53.6-56.32c-20.14 14.456-44.8 23.861-71.52 25.891l-0.48 0.029c-0.724 0.040-1.571 0.063-2.423 0.063-12.549 0-23.938-4.965-32.311-13.037l0.014 0.014c-24.16-25.28-12-80 26.080-132.48l10.56-13.6c1.76-2.24 44-43.36 44.64-44 24.757-21.882 56.501-36.383 91.494-39.788l0.666-0.052c0.54-0.022 1.175-0.035 1.812-0.035 12.535 0 23.913 4.953 32.283 13.009l-0.015-0.014c20.96 21.92 14.56 66.24-12.32 112l53.6 55.68c5.821-2.935 12.688-4.653 19.957-4.653 10.64 0 20.42 3.683 28.134 9.843l-0.090-0.070c20.64 20.64 7.2 68.32-29.44 106.24z" />
<glyph unicode="&#xaa070;" glyph-name="cs-patch" d="M768 972.8h-576v-352l128-144v368h448v-128h128v-640h-384v-128h512v768zM265.024 332.576l92.16-0.096-184.224 230.4-0.096-0.336v0.336l-161.344-230.432 92.336 0.032c-2.224-92.32 31.52-348.896 345.504-383.68v46.064c0 0-206.656 37.392-184.336 337.712zM832 652.8h-448v-448h448v448zM512 268.8h-64v64h64v-64zM512 396.8h-64v64h64v-64zM512 524.8h-64v64h64v-64zM640 268.8h-64v64h64v-64zM640 396.8h-64v64h64v-64zM640 524.8h-64v64h64v-64zM768 268.8h-64v64h64v-64zM768 396.8h-64v64h64v-64zM768 524.8h-64v64h64v-64z" />
<glyph unicode="&#xaa071;" glyph-name="cs-applied-patch" d="M632 178.048l-74.704 74.704-45.248-45.248 119.952-119.952 254.624 254.624-45.248 45.248zM265.024 332.576l92.16-0.096-184.224 230.4-0.096-0.336v0.336l-161.344-230.432 92.336 0.032c-2.224-92.32 31.52-348.896 345.504-383.68v46.064c0 0-206.656 37.392-184.336 337.712zM514 11.904c53.2-39.44 118.816-63.104 190-63.104 155.008 0 284.528 110.8 313.744 257.328l6.256 29.168v481.504l-256 256h-576v-352l128-144v368h448v-128h128v-192.608c-19.696 14.848-41.168 27.472-64 37.568v91.040h-448v-354.672h1.488c-0.88-9.664-1.488-19.424-1.488-29.328 0-104.368 50.448-196.944 128-255.392zM768 588.8v-6.768c-20.704 4.272-42.032 6.768-64 6.768h64zM576 588.8h64v-6.448c-22.288-4.544-43.664-11.536-64-20.448v26.896zM448 588.8h64v-64h-64v64zM704 12.8c-141.152 0-256 114.848-256 256s114.848 256 256 256 256-114.848 256-256-114.848-256-256-256z" />
<glyph unicode="&#xaa072;" glyph-name="cs-migrate" d="M32 529.6v107.2h128c-124.8 24-160 67.2-160 67.2v-142.4c0 0 3.2-14.4 32-32zM32 472c-24 16-32 28.8-32 28.8v-142.4c0 0 11.2-59.2 224-70.4 0 14.4 0 126.4 0 126.4h-192v57.6zM448 524.8l-192 176v-112h-192v-128h192v-112zM224 686.4v94.4l30.4-25.6 12.8-9.6 70.4-59.2 190.4-161.6-64-48c48-4.8 112 0 184 0 380.8 0 376 112 376 112v160c0 0 1.6 6.4 0 14.4v1.6c0 0 0 0 0 0-6.4 28.8-62.4 91.2-342.4 96 0 0-1.6 0-1.6 0-9.6 0-20.8 0-32 0-25.6 0-49.6 0-72-1.6v30.4c0 0 1.6 4.8 0 11.2v0c0 0 0 0 0 0-4.8 22.4-51.2 72-281.6 72-251.2 0-286.4-56-292.8-73.6-1.6 1.6-1.6 1.6-1.6 1.6v-142.4c0 0 6.4-60.8 224-72zM896 732.8c0-35.2-105.6-64-248-64-49.6 0-96 3.2-136 9.6 0 0 0 0 0 0-51.2 8-92.8 19.2-113.6 33.6 0 0 0 0 0 0-9.6 6.4-14.4 12.8-14.4 20.8 0 22.4 52.8 43.2 128 54.4 19.2 3.2 41.6 4.8 64 6.4 1.6 0 1.6 0 3.2 0 9.6 0 19.2 1.6 28.8 1.6 3.2 0 4.8 0 8 0 11.2 0 22.4 0 33.6 0 139.2 1.6 246.4-27.2 246.4-62.4zM480 876.8c0-27.2-86.4-48-192-48s-192 20.8-192 48 86.4 48 192 48 192-20.8 192-48zM1024 236.8c0 0-35.2-112-368-112s-400 112-400 112v-190.4c0 0 17.6-97.6 400-97.6 380.8 0 368 112 368 112v176zM1024 508.8c0 0-35.2-112-368-112-108.8 0-180.8 16-240 32l-144-128c19.2-25.6 88-80 384-80 380.8 0 368 112 368 112v176z" />
<glyph unicode="&#xaa073;" glyph-name="cs-create-migration-flow" d="M688 428.8h64v-384h-64v384zM912 268.8v-64h-384v64h384zM32 529.6v107.2h128c-124.8 24-160 67.2-160 67.2v-142.4c0 0 3.2-14.4 32-32zM32 472c-24 16-32 28.8-32 28.8v-142.4c0 0 11.2-59.2 224-70.4 0 14.4 0 126.4 0 126.4h-192v57.6zM448 524.8l-192 176v-112h-192v-128h192v-112zM1024 60.8v268.8c0 1.6 0 3.2 0 3.2v176c0 0-9.6-30.4-64-59.2-16 19.2-32 38.4-52.8 54.4 118.4 33.6 116.8 84.8 116.8 84.8v160c0 0 1.6 6.4 0 14.4v1.6c0 0 0 0 0 0-6.4 28.8-62.4 91.2-342.4 96 0 0-1.6 0-1.6 0-9.6 0-20.8 0-32 0-25.6 0-49.6 0-72-1.6v30.4c0 0 1.6 4.8 0 11.2v0c0 0 0 0 0 0-4.8 22.4-51.2 72-281.6 72-251.2 0-288-60.8-294.4-80v-134.4c0 0 6.4-60.8 224-72v94.4l30.4-25.6 12.8-9.6 70.4-59.2 190.4-161.6-256-224c12.8-16 41.6-41.6 129.6-59.2 1.6-32 9.6-62.4 20.8-91.2-134.4 32-166.4 86.4-166.4 86.4v-190.4c0 0 17.6-97.6 400-97.6 17.6 0 33.6 0 49.6 0 4.8 0 9.6 0 14.4 0 16 0 30.4 1.6 44.8 3.2 268.8 19.2 259.2 108.8 259.2 108.8zM288 828.8c-105.6 0-192 20.8-192 48s86.4 48 192 48c105.6 0 192-20.8 192-48s-86.4-48-192-48zM512 678.4c0 0-1.6 0 0 0-52.8 8-92.8 19.2-113.6 33.6 0 0 0 0 0 0-9.6 6.4-14.4 12.8-14.4 20.8 0 22.4 52.8 43.2 128 54.4 19.2 3.2 41.6 4.8 64 6.4 1.6 0 1.6 0 3.2 0 9.6 0 19.2 1.6 28.8 1.6 3.2 0 4.8 0 8 0 11.2 0 22.4 0 33.6 0 140.8 0 248-28.8 248-64s-105.6-64-248-64c-51.2 1.6-97.6 4.8-137.6 11.2zM712 4.8c-140.8 0-256 115.2-256 256s115.2 256 256 256 256-115.2 256-256-115.2-256-256-256z" />
<glyph unicode="&#xaa074;" glyph-name="cs-migration-workbench" d="M32 529.6v107.2h128c-124.8 24-160 67.2-160 67.2v-142.4c0 0 3.2-14.4 32-32zM32 472c-24 16-32 28.8-32 28.8v-142.4c0 0 11.2-59.2 224-70.4 0 14.4 0 126.4 0 126.4h-192v57.6zM448 524.8l-192 176v-112h-192v-128h192v-112zM1024 60.8v268.8c0 1.6 0 3.2 0 3.2v176c0 0-9.6-30.4-64-59.2-16 19.2-32 38.4-52.8 54.4 118.4 33.6 116.8 84.8 116.8 84.8v160c0 0 1.6 6.4 0 14.4v1.6c0 0 0 0 0 0-6.4 28.8-62.4 91.2-342.4 96 0 0-1.6 0-1.6 0-9.6 0-20.8 0-32 0-25.6 0-49.6 0-72-1.6v30.4c0 0 1.6 4.8 0 11.2v0c0 0 0 0 0 0-4.8 22.4-51.2 72-281.6 72-251.2 0-288-60.8-294.4-80v-134.4c0 0 6.4-60.8 224-72v94.4l30.4-25.6 12.8-9.6 70.4-59.2 190.4-161.6-256-224c12.8-16 41.6-41.6 129.6-59.2 1.6-32 9.6-62.4 20.8-91.2-134.4 32-166.4 86.4-166.4 86.4v-190.4c0 0 17.6-97.6 400-97.6 17.6 0 33.6 0 49.6 0 4.8 0 9.6 0 14.4 0 16 0 30.4 1.6 44.8 3.2 268.8 19.2 259.2 108.8 259.2 108.8zM288 828.8c-105.6 0-192 20.8-192 48s86.4 48 192 48c105.6 0 192-20.8 192-48s-86.4-48-192-48zM512 678.4c0 0-1.6 0 0 0-52.8 8-92.8 19.2-113.6 33.6 0 0 0 0 0 0-9.6 6.4-14.4 12.8-14.4 20.8 0 22.4 52.8 43.2 128 54.4 19.2 3.2 41.6 4.8 64 6.4 1.6 0 1.6 0 3.2 0 9.6 0 19.2 1.6 28.8 1.6 3.2 0 4.8 0 8 0 11.2 0 22.4 0 33.6 0 140.8 0 248-28.8 248-64s-105.6-64-248-64c-51.2 1.6-97.6 4.8-137.6 11.2zM712 4.8c-140.8 0-256 115.2-256 256s115.2 256 256 256 256-115.2 256-256-115.2-256-256-256zM712 75.2l192 65.6v65.6l-192-62.4-192 62.4v-64zM904 254.4v64l-192-62.4-192 62.4v-64l184-67.2zM904 382.4l-192 64-192-64 192-64z" />
<glyph unicode="&#xaa075;" glyph-name="cs-object1" d="M0-51.2h448v448h-448zM1022.4 715.2c0-140.501-113.899-254.4-254.4-254.4s-254.4 113.899-254.4 254.4c0 140.501 113.899 254.4 254.4 254.4s254.4-113.899 254.4-254.4zM768 396.8l-256-448h512zM224 972.8c-123.2 0-224-30.4-224-65.6s100.8-64 224-64 224 28.8 224 64-100.8 65.6-224 65.6zM0 814.4v-275.2c0-43.2 100.8-78.4 224-78.4s224 35.2 224 78.4v275.2c-233.6-78.4-448 0-448 0z" />
<glyph unicode="&#xaa076;" glyph-name="cs-layout" d="M0 972.8h1024v-256h-1024v256zM0 204.8h641.6v-256h-641.6v256zM0 588.8h256v-256h-256v256zM384 588.8h256v-256h-256v256zM768 588.8h256v-640h-256v640z" />
<glyph unicode="&#xaa077;" glyph-name="cs-app" d="M0 972.8v-256h1024v256h-1024zM256 780.8h-128v128h128v-128zM512 780.8h-128v128h128v-128zM768 780.8h-128v128h128v-128zM0-51.2h1024v640h-1024v-640zM128 460.8h768v-384h-768v384zM256 332.8h512v-128h-512v128z" />
<glyph unicode="&#xaa078;" glyph-name="cs-user-dashboard-assignment" d="M534.4 579.2c48 20.8 78.4 97.6 48 126.4-1.6 1.6-3.2 3.2-4.8 3.2 22.4 57.6 48 163.2-65.6 187.2-27.2 38.4-76.8 76.8-176 76.8-225.6 0-238.4-201.6-236.8-254.4-6.4-1.6-14.4-6.4-20.8-14.4-30.4-28.8 0-107.2 49.6-126.4 14.4-30.4 35.2-59.2 59.2-84.8 43.2-41.6 92.8-65.6 142.4-65.6 0 0 0 0 0 0 83.2 1.6 163.2 67.2 204.8 152zM331.2 492.8c0 0 0 0 0 0-32 0-65.6 16-96 46.4-41.6 40-67.2 99.2-67.2 148.8 0 9.6 1.6 19.2 3.2 28.8 120 25.6 208 64 264 96 1.6-1.6 3.2-3.2 4.8-3.2 1.6-30.4 16-65.6 56-97.6 1.6-8 1.6-14.4 1.6-22.4-1.6-92.8-88-195.2-166.4-196.8zM304 332.8l-105.6 80-198.4-97.6 102.4-270.4h169.6l32 208c0 0-73.6 16 0 80zM998.4 265.6c-17.6 38.4-40 73.6-68.8 100.8-28.8 28.8-62.4 51.2-102.4 67.2s-81.6 25.6-124.8 25.6c-43.2 0-84.8-8-124.8-25.6-40-16-73.6-40-102.4-67.2-28.8-28.8-51.2-62.4-68.8-100.8s-25.6-80-25.6-123.2c0-60.8 17.6-118.4 51.2-171.2 8-12.8 20.8-22.4 35.2-22.4h472c14.4 0 27.2 9.6 35.2 22.4 33.6 52.8 51.2 110.4 51.2 171.2-1.6 41.6-9.6 83.2-27.2 123.2zM673.6 374.4c8 8 19.2 12.8 30.4 12.8s22.4-4.8 30.4-12.8c8-8 12.8-17.6 12.8-30.4 0-11.2-4.8-22.4-12.8-30.4s-19.2-12.8-30.4-12.8c-11.2 0-22.4 4.8-30.4 12.8s-12.8 17.6-12.8 30.4c0 12.8 3.2 22.4 12.8 30.4zM518.4 100.8c-8-8-19.2-12.8-30.4-12.8s-22.4 4.8-30.4 12.8c-8 8-12.8 17.6-12.8 30.4 0 11.2 4.8 22.4 12.8 30.4s19.2 12.8 30.4 12.8c11.2 0 22.4-4.8 30.4-12.8s12.8-17.6 12.8-30.4c0-11.2-4.8-20.8-12.8-30.4zM582.4 251.2c-8-8-19.2-12.8-30.4-12.8s-22.4 4.8-30.4 12.8c-8 8-12.8 17.6-12.8 30.4 0 11.2 4.8 22.4 12.8 30.4s19.2 12.8 30.4 12.8c11.2 0 22.4-4.8 30.4-12.8s12.8-17.6 12.8-30.4c0-12.8-4.8-22.4-12.8-30.4zM766.4 68.8c-4.8-17.6-14.4-30.4-30.4-38.4-16-9.6-32-11.2-49.6-6.4s-30.4 14.4-40 30.4c-9.6 16-11.2 32-6.4 48 3.2 12.8 11.2 24 20.8 32 11.2 8 22.4 12.8 36.8 14.4l16 110.4c1.6 6.4 4.8 9.6 9.6 12.8s11.2 3.2 16 1.6c6.4-1.6 9.6-4.8 12.8-9.6s3.2-9.6 3.2-16l-16-110.4c11.2-8 19.2-17.6 24-30.4 6.4-12.8 6.4-25.6 3.2-38.4zM824 251.2c-8 8-12.8 17.6-12.8 30.4 0 11.2 4.8 22.4 12.8 30.4s19.2 12.8 30.4 12.8c11.2 0 22.4-4.8 30.4-12.8s12.8-17.6 12.8-30.4c0-11.2-4.8-22.4-12.8-30.4s-19.2-12.8-30.4-12.8c-11.2 0-22.4 3.2-30.4 12.8zM950.4 100.8c-8-8-19.2-12.8-30.4-12.8s-22.4 4.8-30.4 12.8c-8 8-12.8 17.6-12.8 30.4 0 11.2 4.8 22.4 12.8 30.4s19.2 12.8 30.4 12.8c11.2 0 22.4-4.8 30.4-12.8s12.8-17.6 12.8-30.4c0-11.2-4.8-20.8-12.8-30.4z" />
<glyph unicode="&#xaa079;" glyph-name="cs-dataobject-workbench" d="M832 561.888v186.912l-192 224h-576v-512h128v384h416v-112h96v-144c-16.352 0-32.304-1.632-48-4v4h-400v-64h256.816c-78.016-58.416-128.816-151.264-128.816-256 0-72.080 24.24-138.432 64.608-192h-256.608v64h-128v-192h624c-0.592 0.208-1.504 0.656-2.176 0.928 6.048-0.352 12.032-0.928 18.176-0.928 176.448 0 320 143.552 320 320 0 130.944-79.12 243.6-192 293.088zM704 12.8c-141.152 0-256 114.848-256 256s114.848 256 256 256 256-114.848 256-256-114.848-256-256-256zM256 716.8h384v-64h-384v64zM144 268.8h96v-96h-96v96zM112 220.8c0-26.51-21.49-48-48-48s-48 21.49-48 48c0 26.51 21.49 48 48 48s48-21.49 48-48zM368 220.8c0-26.51-21.49-48-48-48s-48 21.49-48 48c0 26.51 21.49 48 48 48s48-21.49 48-48zM144 428.8h96v-96h-96v96zM112 380.8c0-26.51-21.49-48-48-48s-48 21.49-48 48c0 26.51 21.49 48 48 48s48-21.49 48-48zM368 380.8c0-26.51-21.49-48-48-48s-48 21.49-48 48c0 26.51 21.49 48 48 48s48-21.49 48-48zM704 92.8l191.456 64 0.544 64-192-64-192 64v-64zM896 268.8v64l-192-64-192 64v-64l192-64zM896 380.8l-192 64-192-64 192-64z" />
<glyph unicode="&#xaa080;" glyph-name="cs-export-m-excel" d="M512 652.8v64h-115.2l-44.8-84-44.8 84h-115.2v-64h76.8l46.928-88-46.928-88h-76.8v-64h115.2l44.8 84 44.8-84h83.2l32 64h-76.8l-46.928 88 46.928 88zM832 561.904v154.896l-256 256h-576v-960h512.816c53.424-40 119.472-64 191.184-64 176.448 0 320 143.552 320 320 0 130.928-79.12 243.6-192 293.104zM128 140.8v704h448v-128h128v-128c10.464 0 20.8-0.576 31.024-1.568-10.224 0.976-20.56 1.568-31.024 1.568-176.448 0-320-143.552-320-320 0-53.312 13.28-103.504 36.432-147.744-3.392 6.464-6.592 13.040-9.536 19.744h-282.896zM822.304 565.872c-6.56 2.624-13.184 5.12-19.952 7.312 6.752-2.208 13.392-4.688 19.952-7.312zM793.664 575.776c-7.728 2.256-15.536 4.384-23.488 6.064 7.936-1.696 15.76-3.776 23.488-6.064zM764.704 582.848c-9.008 1.744-18.112 3.232-27.376 4.192 9.264-0.976 18.368-2.432 27.376-4.192zM427.568 108.352c1.808-3.104 3.68-6.16 5.6-9.2-1.92 3.024-3.776 6.096-5.6 9.2zM465.744 55.92c0.912-1.024 1.84-2.032 2.768-3.056-0.928 1.024-1.84 2.032-2.768 3.056zM704 12.8c-141.152 0-256 114.848-256 256s114.848 256 256 256 256-114.848 256-256-114.848-256-256-256zM896 300.8l-128 144v-80c-112-4.56-224 0-224-192h80c0 80 32 80 144 80v-80l128 128z" />
<glyph unicode="&#xaa081;" glyph-name="cs-my-m-object" d="M368.832 412.8c-29.984 0-63.856 17.296-95.376 48.72-52.8 52.64-97.456 142.368-97.456 207.28 0 6.848-0.768 9.392 0 16 144.704 29.44 256.16 76.32 320 112 6.512-40.72 23.040-91.232 58.304-128.464 0.064-1.952 0.288-3.872 0.288-5.808 0-3.184-0.208-6.448-0.432-9.712h101.296c-1.984 5.552-4.832 10.528-8.864 14.576-0.336 0.352-0.704 0.608-1.040 0.944 26.368 66.336 52.080 182.24-70.288 215.312-29.216 48.192-89.12 86.912-206.144 87.232-250.608 0.624-258.112-229.024-255.904-288.224-7.568-2.4-15.584-7.040-23.824-15.28-34.416-34.416 4.688-130.64 64.88-144.88 18.688-39.312 44.032-76.416 74-106.304 44.24-44.096 92.832-67.392 140.544-67.392h0.464c26.592 0.080 52.816 7.856 77.712 21.2v76.448c-24.784-20.624-51.584-33.552-77.92-33.632h-0.24zM331.568 260.432l-107.568 88.368-224-112 112-288h192l31.504 224.496c0 0-85.632 15.088-3.936 87.136zM448 283.472l-28.064-23.056c13.776-12.144 22.592-22.592 28.064-31.712v54.768zM448 189.408c-11.312-12.352-32-16.128-32-16.128l31.504-224.48h0.496v240.608zM704 524.8v-128h-128v128h128zM768 588.8h-256v-256h256v256zM704 140.8v-128h-128v128h128zM768 204.8h-256v-256h256v256zM1024 524.8h-192v-128h192zM1024 140.8h-192v-128h192z" />
<glyph unicode="&#xaa082;" glyph-name="cs-migration-flow-workbench" d="M32 534.848v101.952h121.568c-124.512 23.216-153.568 72-153.568 72v-143.008c0 0 2.912-14.72 32-30.944zM224 300.8v0 112h-192v63.52c-24.288 15.648-32 28.48-32 28.48v-143.008c0 0-19.328-65.264 224-72.336v11.344zM448 524.8l-192 176v-112h-192v-128h192v-112zM704 76.8l160 64v64l-160-64-160 64v-64zM864 268.8v64l-160-64-160 64v-64l160-64zM872.656 396.8l-168.656 64-168.864-64 168.864-64zM1023.936 236.8c0 0-0.576-1.84-2.256-5.008 1.408 12.16 2.32 24.48 2.32 37.008 0 15.984-1.568 31.568-3.824 46.928 4.48 10.24 3.76 17.072 3.76 17.072v176c0 0-8.896-27.792-58.8-55.68-13.92 19.664-30.048 37.6-47.936 53.648 108.368 33.152 106 82.032 106 82.032v160c0 0 1.792 5.776 0 14.672v1.328c0 0-0.080-0.208-0.192-0.512-5.712 25.536-79.008 80.512-255.008 78.176v-66.416c68.304-12.464 127.2-20.608 127.2-43.248 0-35.344-113.808-64-255.2-64-141.376 0-256.816 28.656-256.816 64 0 22.304 16.816 48 80.8 48 0 0 0 32 0 48-48 0-272 0-272 0-32 0-96-16-96 48 0 32 16 32 96 32 0 0 54.848 0 64.016 0v64c-208.896-6.608-247.888-56.912-254.528-74.112-1.024 1.36-1.472 2.112-1.472 2.112v-143.008c0 0 7.12-60.448 224-71.312v94.32l113.136-95.264 174.864-160.736-224-224c11.456-15.12 16.944-36.064 97.184-55.248 2.336-32.256 9.424-63.136 20.656-92.064-119.744 33.184-149.888 83.312-149.888 83.312v-190.672c0 0 18.672-97.328 400-97.328 13.6 0 26.528 0.176 39.136 0.448 2.976-0.080 5.904-0.448 8.912-0.448 12.016 0 23.824 0.8 35.488 2.096 295.472 15.104 284.448 109.904 284.448 109.904v176zM703.536 10.512c-141.152 0-261.536 118.128-261.536 259.28 0 131.712 106.432 243.504 234.512 257.456 0.96 0.096 1.904 0.24 2.864 0.336 8.224 0.8 16.576 1.264 25.024 1.264 8.304 0 16.464-0.464 24.56-1.248 1.008-0.096 2.032-0.208 3.040-0.304 128.224-13.824 232.992-126.672 232.992-258.496 0-141.152-120.304-258.288-261.456-258.288zM632.816 869.616l-90.304 103.184h-158.512v-64h129.488l73.968-84.544-75.456-75.456h192v192z" />
<glyph unicode="&#xaa083;" glyph-name="cs-apps" d="M404.8 972.8h-345.6c-32 0-59.2-27.2-59.2-59.2v-344c0-33.6 27.2-60.8 59.2-60.8h344c33.6 0 59.2 27.2 59.2 59.2v345.6c1.6 32-25.6 59.2-57.6 59.2v0zM619.2 510.4h344c32 0 59.2 27.2 59.2 59.2v344c0 32-27.2 59.2-59.2 59.2h-344c-32 0-59.2-27.2-59.2-59.2v-344c0-32 27.2-59.2 59.2-59.2v0zM403.2 428.8h-344c-32 0-59.2-27.2-59.2-59.2v-344c0-32 27.2-59.2 59.2-59.2h344c32 0 59.2 27.2 59.2 59.2v344c0 32-27.2 59.2-59.2 59.2v0zM992 236.8h-176v176c0 19.2-12.8 32-32 32s-32-12.8-32-32v-176h-176c-19.2 0-32-12.8-32-32s12.8-32 32-32h176v-176c0-19.2 12.8-32 32-32s32 12.8 32 32v176h176c19.2 0 32 12.8 32 32s-12.8 32-32 32v0z" />
<glyph unicode="&#xaa084;" glyph-name="cs-customer" d="M910.4 820.8h-796.8c-62.4 0-113.6-51.2-113.6-113.6v-492.8c0-62.4 51.2-113.6 113.6-113.6h796.8c62.4 0 113.6 51.2 113.6 113.6v492.8c0 62.4-51.2 113.6-113.6 113.6zM496 572.8h-288c-20.8 0-38.4 19.2-38.4 40s17.6 40 38.4 40h284.8c20.8 0 38.4-19.2 38.4-40s-14.4-40-35.2-40zM734.4 286.4c8-4.8 19.2-6.4 30.4-6.4 16 0 28.8 4.8 40 12.8v0c4.8 3.2 8 8 11.2 12.8 1.6 4.8 3.2 11.2 4.8 19.2v17.6h100.8l-3.2-20.8c-4.8-38.4-22.4-70.4-51.2-92.8-28.8-20.8-64-32-102.4-32-51.2 0-96 17.6-128 51.2v0c-16 17.6-28.8 38.4-36.8 62.4s-11.2 51.2-11.2 80c0 28.8 3.2 56 11.2 80s19.2 44.8 36.8 62.4v0c32 35.2 76.8 51.2 128 51.2 40 0 75.2-9.6 102.4-32 28.8-20.8 46.4-54.4 51.2-92.8l3.2-20.8h-100.8v17.6c0 8-1.6 14.4-4.8 19.2s-6.4 9.6-11.2 12.8c-11.2 8-22.4 11.2-40 12.8-11.2 0-22.4-1.6-30.4-6.4s-16-9.6-24-19.2c-14.4-16-22.4-43.2-22.4-84.8 0-40 8-67.2 22.4-83.2 8-11.2 16-17.6 24-20.8z" />
<glyph unicode="&#xaa085;" glyph-name="cs-notification" d="M892.8 537.6c-11.2 12.8-27.2 19.2-44.8 19.2-16 0-33.6 3.2-51.2 11.2-25.6 11.2-49.6 32-67.2 56-16 25.6-25.6 52.8-25.6 76.8 0 17.6-6.4 33.6-19.2 44.8s-27.2 19.2-44.8 19.2h-497.6c-38.4 0-75.2-16-100.8-41.6s-41.6-62.4-41.6-100.8v-467.2c0-38.4 16-75.2 41.6-100.8s62.4-41.6 100.8-41.6h627.2c38.4 0 75.2 16 100.8 41.6s41.6 62.4 41.6 100.8v337.6c0 17.6-6.4 33.6-19.2 44.8zM779.2 145.6c-3.2-3.2-6.4-4.8-9.6-4.8h-627.2c-4.8 0-8 1.6-9.6 4.8-3.2 1.6-4.8 4.8-4.8 9.6v467.2c0 4.8 1.6 8 4.8 9.6 1.6 3.2 4.8 4.8 9.6 4.8h443.2c3.2-14.4 8-27.2 14.4-40 22.4-48 56-88 99.2-118.4 25.6-17.6 54.4-32 84.8-40v-283.2c0-4.8-1.6-8-4.8-9.6zM1024 748.8c0-70.692-57.308-128-128-128s-128 57.308-128 128c0 70.692 57.308 128 128 128s128-57.308 128-128z" />
<glyph unicode="&#xaa086;" glyph-name="cs-org" d="M382.4 625.6l-62.4 59.2c11.2 20.8 16 48 6.4 76.8-12.8 32-41.6 56-73.6 59.2-62.4 8-113.6-46.4-102.4-108.8 6.4-33.6 32-60.8 64-70.4 28.8-8 54.4-3.2 75.2 9.6l62.4-59.2c8 12.8 19.2 24 30.4 33.6v0zM646.4 633.6l83.2 139.2c24-6.4 51.2-8 88 25.6 17.6 16 30.4 40 30.4 64 0 57.6-54.4 102.4-115.2 88-33.6-8-60.8-35.2-67.2-70.4-6.4-33.6 3.2-64 24-84.8l-83.2-139.2c14.4-6.4 27.2-14.4 40-22.4v0zM931.2 516.8c-40 0-73.6-25.6-86.4-60.8l-115.2 11.2c0-1.6 0-1.6 0-3.2 0-14.4-1.6-30.4-4.8-43.2l115.2-11.2c8-51.2 56-88 110.4-75.2 35.2 8 64 36.8 70.4 73.6 12.8 57.6-32 108.8-89.6 108.8v0zM614.4 153.6l-25.6 112c-14.4-4.8-28.8-8-44.8-11.2l25.6-112c-33.6-17.6-56-56-48-97.6 6.4-35.2 33.6-65.6 68.8-73.6 60.8-14.4 115.2 32 115.2 89.6-1.6 49.6-41.6 91.2-91.2 92.8v0zM312 420.8l-142.4-48c-19.2 30.4-56 48-97.6 40-36.8-8-65.6-38.4-72-73.6-9.6-57.6 35.2-108.8 91.2-108.8 51.2 0 92.8 41.6 92.8 92.8 0 1.6 0 4.8 0 6.4l144 48c-6.4 12.8-11.2 27.2-16 43.2v0zM676.8 464c0-99.2-89.6-176-192-155.2-59.2 12.8-108.8 60.8-121.6 120-22.4 102.4 56 193.6 155.2 193.6 88 0 158.4-70.4 158.4-158.4v0z" />
<glyph unicode="&#xaa087;" glyph-name="cs-request" d="M758.4 432c0-41.6 33.6-75.2 75.2-75.2s75.2 33.6 75.2 75.2c0 41.6-33.6 75.2-75.2 75.2s-75.2-33.6-75.2-75.2v0zM908.8 332.8c0 0-19.2 6.4-19.2 6.4-6.4 1.6-14.4 0-19.2-3.2l-36.8-28.8-36.8 28.8c-6.4 4.8-12.8 4.8-19.2 3.2 0 0-19.2-6.4-19.2-6.4-30.4-9.6-51.2-38.4-51.2-70.4v-113.6c0-4.8 1.6-8 3.2-12.8l38.4-57.6v-104c0-12.8 9.6-22.4 22.4-22.4h124.8c12.8 0 22.4 9.6 22.4 22.4v104l38.4 57.6c1.6 3.2 3.2 8 3.2 12.8v113.6c0 32-20.8 60.8-51.2 70.4v0zM176 358.4c41.6 0 75.2 33.6 75.2 75.2s-33.6 75.2-75.2 75.2c-41.6 0-75.2-33.6-75.2-75.2 0-43.2 33.6-75.2 75.2-75.2v0zM251.2 332.8c0 0-19.2 6.4-19.2 6.4-6.4 1.6-14.4 0-19.2-3.2l-36.8-28.8-36.8 28.8c-6.4 4.8-12.8 4.8-19.2 3.2 0 0-19.2-6.4-19.2-6.4-32-9.6-52.8-38.4-52.8-70.4v-113.6c0-4.8 1.6-8 3.2-12.8l38.4-57.6v-104c0-12.8 9.6-22.4 22.4-22.4h126.4c12.8 0 22.4 9.6 22.4 22.4v104l38.4 57.6c1.6 3.2 3.2 8 3.2 12.8v113.6c0 32-20.8 60.8-51.2 70.4v0zM600 537.6c0 52.8-43.2 96-96 96s-96-43.2-96-96 43.2-96 96-96c52.8 0 96 43.2 96 96v0zM609.6 395.2v0l-27.2 8c-4.8 1.6-9.6-1.6-11.2-4.8l-57.6-158.4c-3.2-9.6-16-9.6-19.2 0l-57.6 158.4c-1.6 3.2-4.8 6.4-8 6.4-1.6 0-30.4-8-30.4-8-35.2-11.2-59.2-44.8-59.2-81.6v-168c0-1.6 0-3.2 1.6-4.8l60.8-91.2v-91.2c0-4.8 3.2-8 8-8h187.2c4.8 0 8 3.2 8 8v91.2l60.8 91.2c1.6 1.6 1.6 3.2 1.6 4.8v166.4c1.6 36.8-22.4 68.8-57.6 81.6v0zM526.4 398.4c-1.6 3.2-6.4 3.2-9.6 3.2h-25.6c-3.2 0-6.4-1.6-9.6-3.2-3.2-4.8-4.8-9.6-1.6-14.4l14.4-20.8-6.4-56 12.8-35.2c1.6-3.2 6.4-3.2 8 0l12.8 35.2-6.4 56 14.4 20.8c1.6 4.8 1.6 9.6-3.2 14.4v0zM739.2 857.6v104l-182.4-180.8 182.4-182.4v107.2c129.6 0 220.8-41.6 284.8-132.8-25.6 129.6-104 259.2-284.8 284.8z" />
<glyph unicode="&#xaa088;" glyph-name="cs-predictive-analytics" d="M206.4 203.2c-27.2 0-48 20.8-48 48 0 86.4-33.6 118.4-35.2 118.4-72 67.2-112 155.2-112 248s40 180.8 112 246.4c72 64 166.4 99.2 265.6 99.2 100.8 0 195.2-35.2 265.6-99.2 19.2-17.6 20.8-48 3.2-67.2s-48-20.8-67.2-3.2c-54.4 48-124.8 75.2-201.6 75.2s-148.8-27.2-201.6-75.2c-52.8-48-81.6-108.8-81.6-176 0-65.6 28.8-128 80-176 12.8-11.2 67.2-65.6 67.2-192 1.6-25.6-19.2-46.4-46.4-46.4zM544 396.8c-11.2-28.8-19.2-96-19.2-145.6 0-27.2 25.6-46.4 52.8-46.4s43.2 19.2 43.2 46.4c0 80 16 140.8 20.8 145.6h-97.6zM544 76.8h-320c-17.6 0-32 14.4-32 32s14.4 32 32 32h320c17.6 0 32-14.4 32-32s-14.4-32-32-32zM480-51.2h-192c-17.6 0-32 14.4-32 32s14.4 32 32 32h192c17.6 0 32-14.4 32-32s-14.4-32-32-32zM640 588.8h64v-128h-64v128zM768 716.8h64v-256h-64v256zM896 844.8h64v-384h-64v384zM320 588.8v128c-70.4 0-128-57.6-128-128s57.6-128 128-128 128 57.6 128 128c0 16 0 32-16 48l-112-48z" />
</font>
</defs>
</svg>
